<?xml version="1.0" standalone="no"?>
<!DOCTYPE svg PUBLIC "-//W3C//DTD SVG 1.1//EN" "http://www.w3.org/Graphics/SVG/1.1/DTD/svg11.dtd">
<svg xmlns="http://www.w3.org/2000/svg">
<metadata>Generated by Fontastic.me</metadata>
<defs>
<font id="files" horiz-adv-x="512">
<font-face font-family="files" units-per-em="512" ascent="480" descent="-32"/>
<missing-glyph horiz-adv-x="512" />

<glyph unicode="&#57344;" d="M350 374l-88 88c-2 1-4 2-6 2l-160 0c-18 0-32-14-32-32l0-320c0-18 14-32 32-32l136 0c4 0 8 4 8 8 0 4-4 8-8 8l-136 0c-9 0-16 7-16 16l0 320c0 9 7 16 16 16l144 0 0-64c0-18 14-32 32-32l64 0 0-72c0-4 4-8 8-8 4 0 8 4 8 8l0 88c0 2-1 4-2 6z m-94 10l0 61 77-77-61 0c-9 0-16 7-16 16z m168-304l0 0c0 0 0 0 0 0-6 0-11 5-11 12l-3 53c-3 42-25 72-55 78l0 9c0 4-3 8-8 8l-6 0c-5 0-8-4-8-8l0-9c-30-6-52-36-55-79l-3-53c0-6-5-11-11-11-4 0-8-4-8-8 0-4 4-8 8-8l160 0c0 0 0 0 0 0 5 0 8 4 8 8 0 4-3 8-8 8z m-135 0c1 3 2 7 2 11l3 52c3 39 23 65 50 65 27 0 47-26 50-64l3-53c0-4 1-8 2-11z m55-48c-8 0-16 3-21 9-3 3-3 8 0 11 3 3 8 3 11 0 5-5 15-5 20 0 3 3 8 3 11 0 3-3 3-8 0-11-5-6-13-9-21-9z"/>
<glyph unicode="&#57345;" d="M184 80l-88 0c-18 0-32 14-32 32l0 320c0 18 14 32 32 32 4 0 8-4 8-8 0-4-4-8-8-8-9 0-16-7-16-16l0-320c0-9 7-16 16-16l88 0c4 0 8-4 8-8 0-4-4-8-8-8z m160 176c-4 0-8 4-8 8l0 101-83 83-157 0c-4 0-8 4-8 8 0 4 4 8 8 8l160 0c2 0 4-1 6-2l88-88c1-2 2-4 2-6l0-104c0-4-4-8-8-8z m0 96l-72 0c-18 0-32 14-32 32l0 72c0 4 4 8 8 8 4 0 8-4 8-8l0-72c0-9 7-16 16-16l72 0c4 0 8-4 8-8 0-4-4-8-8-8z m-88-320c-12 0-24 5-34 13-9 9-14 21-14 33 0 13 5 25 14 33l142 134c15 15 41 15 56 0 8-8 12-17 12-28 0-10-4-20-12-27l-110-103c-12-12-32-12-45 0-6 6-9 14-9 22 0 6 2 12 5 17l-28-26c-6-6-9-14-9-22 0-8 3-15 9-21 13-12 33-12 46 0l100 93c3 3 8 2 11-1 3-3 3-8-1-11l-99-93c-10-9-22-13-34-13z m80 162c2 0 4-1 6-3 3-3 3-8-1-11l-65-60c-2-3-4-7-4-11 0-4 2-8 5-10 6-6 16-6 22 0l110 102c5 5 7 10 7 16 0 6-2 12-7 16-9 9-25 9-34 0l-43-40c1 1 3 1 4 1z"/>
<glyph unicode="&#57346;" d="M264 80l-152 0c-18 0-32 14-32 32l0 320c0 18 14 32 32 32 4 0 8-4 8-8 0-4-4-8-8-8-9 0-16-7-16-16l0-320c0-9 7-16 16-16l152 0c4 0 8-4 8-8 0-4-4-8-8-8z m96 232c-4 0-8 4-8 8l0 45-83 83-157 0c-4 0-8 4-8 8 0 4 4 8 8 8l160 0c2 0 4-1 6-2l88-88c1-2 2-4 2-6l0-48c0-4-4-8-8-8z m0 40l-72 0c-18 0-32 14-32 32l0 72c0 4 4 8 8 8 4 0 8-4 8-8l0-72c0-9 7-16 16-16l72 0c4 0 8-4 8-8 0-4-4-8-8-8z m-16-240c-22 0-40 18-40 40l0 96c0 22 18 40 40 40 22 0 40-18 40-40l0-96c0-22-18-40-40-40z m0 160c-13 0-24-11-24-24l0-96c0-13 11-24 24-24 13 0 24 11 24 24l0 96c0 13-11 24-24 24z m24-240l-48 0c-4 0-8 4-8 8 0 4 4 8 8 8l48 0c4 0 8-4 8-8 0-4-4-8-8-8z m-24 0c-4 0-8 4-8 8l0 48c0 4 4 8 8 8 4 0 8-4 8-8l0-48c0-4-4-8-8-8z m0 48c-40 0-72 32-72 72l0 32c0 4 4 8 8 8 4 0 8-4 8-8l0-32c0-31 25-56 56-56 31 0 56 25 56 56l0 32c0 4 4 8 8 8 4 0 8-4 8-8l0-32c0-40-32-72-72-72z"/>
<glyph unicode="&#57347;" d="M350 374l-88 88c-2 1-4 2-6 2l-160 0c-18 0-32-14-32-32l0-320c0-18 14-32 32-32l120 0c4 0 8 4 8 8 0 4-4 8-8 8l-120 0c-9 0-16 7-16 16l0 320c0 9 7 16 16 16l144 0 0-64c0-18 14-32 32-32l64 0 0-88c0-4 4-8 8-8 4 0 8 4 8 8l0 104c0 2-1 4-2 6z m-94 10l0 61 77-77-61 0c-9 0-16 7-16 16z m156-160l-28 0 0 8c0 4-4 8-8 8-4 0-8-4-8-8l0-8-64 0 0 8c0 4-4 8-8 8-4 0-8-4-8-8l0-8-28 0c-11 0-20-9-20-20l0-152c0-11 9-20 20-20l152 0c11 0 20 9 20 20l0 152c0 11-9 20-20 20z m-152-16l28 0 0-8c0-4 4-8 8-8 4 0 8 4 8 8l0 8 64 0 0-8c0-4 4-8 8-8 4 0 8 4 8 8l0 8 28 0c2 0 4-2 4-4l0-28-160 0 0 28c0 2 2 4 4 4z m152-160l-152 0c-2 0-4 2-4 4l0 108 160 0 0-108c0-2-2-4-4-4z m-68 16c-4 0-8 4-8 8l0 49c-4-2-8-1-11 3-2 3-1 8 3 11l12 8c2 1 5 1 8 0 2-1 4-4 4-7l0-64c0-4-4-8-8-8z"/>
<glyph unicode="&#57348;" d="M200 80l-88 0c-18 0-32 14-32 32l0 320c0 18 14 32 32 32 4 0 8-4 8-8 0-4-4-8-8-8-9 0-16-7-16-16l0-320c0-9 7-16 16-16l88 0c4 0 8-4 8-8 0-4-4-8-8-8z m160 176c-4 0-8 4-8 8l0 101-83 83-157 0c-4 0-8 4-8 8 0 4 4 8 8 8l160 0c2 0 4-1 6-2l88-88c1-2 2-4 2-6l0-104c0-4-4-8-8-8z m0 96l-72 0c-18 0-32 14-32 32l0 72c0 4 4 8 8 8 4 0 8-4 8-8l0-72c0-9 7-16 16-16l72 0c4 0 8-4 8-8 0-4-4-8-8-8z m-80-320c-1 0-2 0-3 1-3 1-5 4-5 7l0 40-28 0c-11 0-20 9-20 20l0 120c0 11 9 20 20 20l184 0c11 0 20-9 20-20l0-120c0-11-9-20-20-20l-100 0-42-45c-2-2-4-3-6-3z m-36 192c-2 0-4-2-4-4l0-120c0-2 2-4 4-4l36 0c4 0 8-4 8-8l0-27 30 32c2 2 4 3 6 3l104 0c2 0 4 2 4 4l0 120c0 2-2 4-4 4z"/>
<glyph unicode="&#57349;" d="M350 374l-88 88c-2 1-4 2-6 2l-160 0c-18 0-32-14-32-32l0-320c0-18 14-32 32-32l104 0c4 0 8 4 8 8 0 4-4 8-8 8l-104 0c-9 0-16 7-16 16l0 320c0 9 7 16 16 16l144 0 0-64c0-18 14-32 32-32l64 0 0-104c0-4 4-8 8-8 4 0 8 4 8 8l0 120c0 2-1 4-2 6z m-94 10l0 61 77-77-61 0c-9 0-16 7-16 16z m24-320c-2 0-4 1-6 2l-48 48c-3 3-3 9 0 12l48 48c3 3 9 3 12 0 3-3 3-9 0-12l-43-42 43-42c3-3 3-9 0-12-2-1-4-2-6-2z m96 0c-2 0-4 1-6 2-3 3-3 9 0 12l43 42-43 42c-3 3-3 9 0 12 3 3 9 3 12 0l48-48c3-3 3-9 0-12l-48-48c-2-1-4-2-6-2z m-64-32c-1 0-1 0-2 0-4 1-7 5-6 10l32 160c1 4 5 7 10 6 4-1 7-5 6-10l-32-160c-1-3-4-6-8-6z"/>
<glyph unicode="&#57350;" d="M366 374l-88 88c-2 1-4 2-6 2l-160 0c-18 0-32-14-32-32l0-320c0-18 14-32 32-32l88 0c4 0 8 4 8 8 0 4-4 8-8 8l-88 0c-9 0-16 7-16 16l0 320c0 9 7 16 16 16l144 0 0-64c0-18 14-32 32-32l64 0 0-104c0-4 4-8 8-8 4 0 8 4 8 8l0 120c0 2-1 4-2 6z m-94 10l0 61 77-77-61 0c-9 0-16 7-16 16z m152-160l-192 0c-4 0-8-4-8-8l0-176c0-4 4-8 8-8l192 0c4 0 8 4 8 8l0 176c0 4-4 8-8 8z m-120-144l0 16 48 0 0-16z m48-16l0-16-48 0 0 16z m64 128l0-16-48 0 0 16z m-128-48l-48 0 0 16 48 0z m16 16l48 0 0-16-48 0z m-16-32l0-16-48 0 0 16z m16 0l48 0 0-16-48 0z m64 0l48 0 0-16-48 0z m0 16l0 16 48 0 0-16z m-16 48l0-16-48 0 0 16z m-64-16l-48 0 0 16 48 0z m-48-80l48 0 0-16-48 0z m128 0l48 0 0-16-48 0z m-128-32l48 0 0-16-48 0z m128-16l0 16 48 0 0-16z"/>
<glyph unicode="&#57351;" d="M350 374l-88 88c-2 1-4 2-6 2l-160 0c-18 0-32-14-32-32l0-320c0-18 14-32 32-32l120 0c4 0 8 4 8 8 0 4-4 8-8 8l-120 0c-9 0-16 7-16 16l0 320c0 9 7 16 16 16l144 0 0-64c0-18 14-32 32-32l64 0 0-88c0-4 4-8 8-8 4 0 8 4 8 8l0 104c0 2-1 4-2 6z m-94 10l0 61 77-77-61 0c-9 0-16 7-16 16z m176-176c0 28-60 32-96 32-36 0-96-4-96-32l0-44c0-1 0-2 0-3 0 0 0-1 0-1l0-44c0-1 0-2 0-3 0 0 0-1 0-1l0-44c0-30 52-36 96-36 44 0 96 6 96 36l0 44c0 1 0 1 0 1 0 1 0 2 0 3l0 44c0 1 0 1 0 1 0 1 0 2 0 3z m-16-92c0-10-25-20-80-20-55 0-80 10-80 20l0 25c19-10 51-13 80-13 29 0 61 3 80 13z m-80 28c-55 0-80 10-80 20l0 24c20-10 56-12 80-12 24 0 60 2 80 12l0-24c0-10-25-20-80-20z m0 80c56 0 80-11 80-16 0-5-24-16-80-16-56 0-80 11-80 16 0 5 24 16 80 16z m0-176c-55 0-80 10-80 20l0 25c19-10 51-13 80-13 29 0 61 3 80 13l0-25c0-10-25-20-80-20z"/>
<glyph unicode="&#57352;" d="M350 374l-88 88c-2 1-4 2-6 2l-160 0c-18 0-32-14-32-32l0-320c0-18 14-32 32-32l152 0c4 0 8 4 8 8 0 4-4 8-8 8l-152 0c-9 0-16 7-16 16l0 320c0 9 7 16 16 16l144 0 0-64c0-18 14-32 32-32l64 0 0-40c0-4 4-8 8-8 4 0 8 4 8 8l0 56c0 2-1 4-2 6z m-78-6c-9 0-16 7-16 16l0 61 77-77z m159-193c-4 2-9 1-11-3-9-16-24-29-41-36l-17 45c8 6 14 16 14 27 0 15-10 27-24 31l0 25c0 4-4 8-8 8-4 0-8-4-8-8l0-25c-14-4-24-16-24-31 0-11 6-21 14-27l-20-53c0 0 0 0 0 0 0 0 0 0 0 0l-33-85c-2-4 0-9 4-10 1-1 2-1 3-1 3 0 6 2 7 5l31 78c8-2 17-3 26-3 9 0 18 1 26 3l31-78c1-3 4-5 7-5 1 0 2 0 3 1 4 1 6 6 4 10l-30 78c20 8 38 23 49 43 2 4 1 9-3 11z m-87 49c9 0 16-7 16-16 0-9-7-16-16-16-9 0-16 7-16 16 0 9 7 16 16 16z m0-96c-7 0-14 1-20 2l18 46c0 0 1 0 2 0 1 0 2 0 2 0l18-45c-6-2-13-3-20-3z"/>
<glyph unicode="&#57353;" d="M318 110c-3 3-9 3-12 0l-50-51 0 221c0 4-4 8-8 8-4 0-8-4-8-8l0-221-50 51c-3 3-9 3-12 0-3-3-3-9 0-12l64-64c1 0 2-1 3-1 1-1 2-1 3-1 1 0 2 0 3 1 1 0 2 1 3 1l64 64c3 3 3 9 0 12z m80 264l-88 88c-2 1-4 2-6 2l-176 0c-18 0-32-14-32-32l0-320c0-18 14-32 32-32l24 0c4 0 8 4 8 8 0 4-4 8-8 8l-24 0c-9 0-16 7-16 16l0 320c0 9 7 16 16 16l160 0 0-64c0-18 14-32 32-32l64 0 0-240c0-9-7-16-16-16l-24 0c-4 0-8-4-8-8 0-4 4-8 8-8l24 0c18 0 32 14 32 32l0 256c0 2-1 4-2 6z m-94 10l0 61 77-77-61 0c-9 0-16 7-16 16z"/>
<glyph unicode="&#57354;" d="M350 374l-88 88c-2 1-4 2-6 2l-160 0c-18 0-32-14-32-32l0-320c0-18 14-32 32-32l104 0c4 0 8 4 8 8 0 4-4 8-8 8l-104 0c-9 0-16 7-16 16l0 320c0 9 7 16 16 16l144 0 0-64c0-18 14-32 32-32l64 0 0-104c0-4 4-8 8-8 4 0 8 4 8 8l0 120c0 2-1 4-2 6z m-94 10l0 61 77-77-61 0c-9 0-16 7-16 16z m170-150l-16 16c-8 8-21 7-28 0l-14-13c0 0 0 0-1 0 0 0 0 0 0 0l-121-123c0 0 0 0 0 0l0 0-3-3c-1 0-1-1-2-2l-32-65c-2-4-1-7 1-10 2-1 4-2 6-2 1 0 2 0 4 1l65 32c1 1 2 1 2 2l125 125 14 14c8 7 8 20 0 28z m-174-138l20-19-38-19z m33-9l-22 22 110 111 22-22z m130 130l-9-8-21 22 8 8c1 1 2 1 3 1 0 0 1 0 2-1l17-17c1-1 1-4 0-5z"/>
<glyph unicode="&#57355;" d="M350 374l-88 88c-2 1-4 2-6 2l-160 0c-18 0-32-14-32-32l0-320c0-18 14-32 32-32l88 0c4 0 8 4 8 8 0 4-4 8-8 8l-88 0c-9 0-16 7-16 16l0 320c0 9 7 16 16 16l144 0 0-64c0-18 14-32 32-32l64 0 0-120c0-4 4-8 8-8 4 0 8 4 8 8l0 136c0 2-1 4-2 6z m-94 10l0 61 77-77-61 0c-9 0-16 7-16 16z m170-181c0 0 0 0-1 0 0 0 0 0 0 0-3 3-8 5-13 5l-184 0c-5 0-10-2-13-5 0 0-1 0-1 0 0-1 0-1 0-1-4-3-6-8-6-14l0-136c0-11 9-20 20-20l184 0c11 0 20 9 20 20l0 136c0 6-2 11-6 15z m-52-101c-3 3-9 3-12 0-3-3-3-9 0-12l43-42-170 0 43 42c3 3 3 9 0 12-3 3-9 3-12 0l-42-43 0 122 82-83c4-3 9-6 14-6 6 0 11 3 15 6l81 84 0-123z m-138 90l168 0-81-82c-1-2-4-2-5 0z"/>
<glyph unicode="&#57356;" d="M350 374l-88 88c-2 1-4 2-6 2l-160 0c-18 0-32-14-32-32l0-320c0-18 14-32 32-32l152 0c4 0 8 4 8 8 0 4-4 8-8 8l-152 0c-9 0-16 7-16 16l0 320c0 9 7 16 16 16l144 0 0-64c0-18 14-32 32-32l64 0 0-56c0-4 4-8 8-8 4 0 8 4 8 8l0 72c0 2-1 4-2 6z m-94 10l0 61 77-77-61 0c-9 0-16 7-16 16z m184-128l-144 0c-4 0-8-4-8-8l0-208c0-4 4-8 8-8 4 0 8 4 8 8l0 104 136 0c4 0 8 4 8 8l0 96c0 4-4 8-8 8z m-8-96l-128 0 0 80 128 0z"/>
<glyph unicode="&#57357;" d="M350 374l-88 88c-2 1-4 2-6 2l-160 0c-18 0-32-14-32-32l0-320c0-18 14-32 32-32l104 0c4 0 8 4 8 8 0 4-4 8-8 8l-104 0c-9 0-16 7-16 16l0 320c0 9 7 16 16 16l144 0 0-64c0-18 14-32 32-32l64 0 0-88c0-4 4-8 8-8 4 0 8 4 8 8l0 104c0 2-1 4-2 6z m-94 10l0 61 77-77-61 0c-9 0-16 7-16 16z m168-352l-192 0c-4 0-8 4-8 8l0 176c0 4 4 8 8 8 4 0 8-4 8-8l0-168 184 0c4 0 8-4 8-8 0-4-4-8-8-8z m-64 32l-32 0c-4 0-8 4-8 8l0 96c0 4 4 8 8 8l32 0c4 0 8-4 8-8l0-96c0-4-4-8-8-8z m-24 16l16 0 0 80-16 0z m88-16l-32 0c-4 0-8 4-8 8l0 144c0 4 4 8 8 8l32 0c4 0 8-4 8-8l0-144c0-4-4-8-8-8z m-24 16l16 0 0 128-16 0z m-104-16l-32 0c-4 0-8 4-8 8l0 48c0 4 4 8 8 8l32 0c4 0 8-4 8-8l0-48c0-4-4-8-8-8z m-24 16l16 0 0 32-16 0z"/>
<glyph unicode="&#57358;" d="M184 80l-88 0c-18 0-32 14-32 32l0 320c0 18 14 32 32 32 4 0 8-4 8-8 0-4-4-8-8-8-9 0-16-7-16-16l0-320c0-9 7-16 16-16l88 0c4 0 8-4 8-8 0-4-4-8-8-8z m160 176c-4 0-8 4-8 8l0 101-83 83-157 0c-4 0-8 4-8 8 0 4 4 8 8 8l160 0c2 0 4-1 6-2l88-88c1-2 2-4 2-6l0-104c0-4-4-8-8-8z m0 96l-72 0c-18 0-32 14-32 32l0 72c0 4 4 8 8 8 4 0 8-4 8-8l0-72c0-9 7-16 16-16l72 0c4 0 8-4 8-8 0-4-4-8-8-8z m96-304l-224 0c-4 0-8 4-8 8l0 176c0 4 4 8 8 8l224 0c4 0 8-4 8-8l0-176c0-4-4-8-8-8z m-216 16l208 0 0 160-208 0z m44 88c-15 0-28 13-28 28 0 15 13 28 28 28 15 0 28-13 28-28 0-15-13-28-28-28z m0 40c-7 0-12-5-12-12 0-7 5-12 12-12 7 0 12 5 12 12 0 7-5 12-12 12z m-52-144c-2 0-4 1-6 2-3 3-3 9 0 12l88 88c3 3 9 3 12 0l48-48c3-3 3-9 0-12-3-3-9-3-12 0l-42 43-82-83c-2-1-4-2-6-2z m224 48c-2 0-4 1-6 2l-58 59-42-43c-3-3-9-3-12 0-3 3-3 9 0 12l48 48c2 1 4 2 6 2 2 0 4-1 6-2l64-64c3-3 3-9 0-12-2-1-4-2-6-2z"/>
<glyph unicode="&#57359;" d="M200 80l-88 0c-18 0-32 14-32 32l0 320c0 18 14 32 32 32 4 0 8-4 8-8 0-4-4-8-8-8-9 0-16-7-16-16l0-320c0-9 7-16 16-16l88 0c4 0 8-4 8-8 0-4-4-8-8-8z m160 176c-4 0-8 4-8 8l0 101-83 83-157 0c-4 0-8 4-8 8 0 4 4 8 8 8l160 0c2 0 4-1 6-2l88-88c1-2 2-4 2-6l0-104c0-4-4-8-8-8z m0 96l-72 0c-18 0-32 14-32 32l0 72c0 4 4 8 8 8 4 0 8-4 8-8l0-72c0-9 7-16 16-16l72 0c4 0 8-4 8-8 0-4-4-8-8-8z m-32-272c-2 0-4 1-6 2-1 2-2 4-2 6 0 2 1 4 2 6 3 3 9 3 12 0 1-2 2-4 2-6 0-2-1-4-2-6-2-1-4-2-6-2z m0-48c-57 0-104 47-104 104 0 57 47 104 104 104 57 0 104-47 104-104 0-57-47-104-104-104z m0 192c-49 0-88-39-88-88 0-49 39-88 88-88 49 0 88 39 88 88 0 49-39 88-88 88z m0-112c-4 0-8 4-8 8l0 64c0 4 4 8 8 8 4 0 8-4 8-8l0-64c0-4-4-8-8-8z"/>
<glyph unicode="&#57360;" d="M350 374l-88 88c-2 1-4 2-6 2l-160 0c-18 0-32-14-32-32l0-320c0-18 14-32 32-32l168 0c4 0 8 4 8 8 0 4-4 8-8 8l-168 0c-9 0-16 7-16 16l0 320c0 9 7 16 16 16l144 0 0-64c0-18 14-32 32-32l64 0 0-72c0-4 4-8 8-8 4 0 8 4 8 8l0 88c0 2-1 4-2 6z m-78-6c-9 0-16 7-16 16l0 61 77-77z m56-216c-18 0-32 14-32 32 0 18 14 32 32 32 18 0 32-14 32-32 0-18-14-32-32-32z m0 48c-9 0-16-7-16-16 0-9 7-16 16-16 9 0 16 7 16 16 0 9-7 16-16 16z m0-168c-3 0-6 2-7 4l-58 116c-5 10-7 21-7 32 0 40 32 72 72 72 40 0 72-32 72-72 0-11-2-22-7-32l-58-116c-1-2-4-4-7-4z m0 208c-31 0-56-25-56-56 0-9 2-17 6-25l50-101 50 101c4 8 6 16 6 25 0 31-25 56-56 56z"/>
<glyph unicode="&#57361;" d="M350 374l-88 88c-2 1-4 2-6 2l-160 0c-18 0-32-14-32-32l0-320c0-18 14-32 32-32l104 0c4 0 8 4 8 8 0 4-4 8-8 8l-104 0c-9 0-16 7-16 16l0 320c0 9 7 16 16 16l144 0 0-64c0-18 14-32 32-32l64 0 0-56c0-4 4-8 8-8 4 0 8 4 8 8l0 72c0 2-1 4-2 6z m-78-6c-9 0-16 7-16 16l0 61 77-77z m136-176l-16 0 0 16c0 35-29 64-64 64-35 0-64-29-64-64l0-16-16 0c-4 0-8-4-8-8l0-144c0-4 4-8 8-8l160 0c4 0 8 4 8 8l0 144c0 4-4 8-8 8z m-128 16c0 26 22 48 48 48 26 0 48-22 48-48l0-16-96 0z m120-160l-144 0 0 128 144 0z m-56 80c0 9-7 16-16 16-9 0-16-7-16-16 0-6 3-11 8-14l0-26c0-4 4-8 8-8 4 0 8 4 8 8l0 26c5 3 8 8 8 14z"/>
<glyph unicode="&#57362;" d="M350 374l-88 88c-2 1-4 2-6 2l-160 0c-18 0-32-14-32-32l0-320c0-18 14-32 32-32l152 0c4 0 8 4 8 8 0 4-4 8-8 8l-152 0c-9 0-16 7-16 16l0 320c0 9 7 16 16 16l144 0 0-64c0-18 14-32 32-32l64 0 0-88c0-4 4-8 8-8 4 0 8 4 8 8l0 104c0 2-1 4-2 6z m-78-6c-9 0-16 7-16 16l0 61 77-77z m64-336c-2 0-4 1-6 3l-88 96c-11 12-18 28-18 45 0 17 7 33 19 45 12 12 28 19 45 19 17 0 33-7 45-19l3-2 3 3c12 11 28 18 45 18 17 0 33-7 45-19 12-12 19-28 19-45 0-17-7-33-19-45l-87-96c-2-2-4-3-6-3z m-48 192c-13 0-25-5-34-14-9-9-14-21-14-34 0-13 5-25 14-34l82-90 82 90c9 9 14 21 14 34 0 13-5 25-14 34-9 9-21 14-34 14-13 0-25-5-34-14l-9-8c-3-3-7-3-10 0l-9 8c-9 9-21 14-34 14z"/>
<glyph unicode="&#57363;" d="M424 144l-160 0c-4 0-8 4-8 8 0 4 4 8 8 8l160 0c4 0 8-4 8-8 0-4-4-8-8-8z m-74 230l-88 88c-2 1-4 2-6 2l-160 0c-18 0-32-14-32-32l0-336c0-18 14-32 32-32l224 0c14 0 26 9 30 21 1 4 2 7 2 11l0 8c0 4-4 8-8 8-4 0-8-4-8-8l0-8c0-2 0-4-1-5-2-7-8-11-15-11l-224 0c-9 0-16 7-16 16l0 336c0 9 7 16 16 16l144 0 0-64c0-18 14-32 32-32l64 0 0-152c0-4 4-8 8-8 4 0 8 4 8 8l0 168c0 2-1 4-2 6z m-94 10l0 61 77-77-61 0c-9 0-16 7-16 16z"/>
<glyph unicode="&#57364;" d="M350 374l-88 88c-2 1-4 2-6 2l-160 0c-18 0-32-14-32-32l0-320c0-18 14-32 32-32l88 0c4 0 8 4 8 8 0 4-4 8-8 8l-88 0c-9 0-16 7-16 16l0 320c0 9 7 16 16 16l144 0 0-64c0-18 14-32 32-32l64 0 0-104c0-4 4-8 8-8 4 0 8 4 8 8l0 120c0 2-1 4-2 6z m-94 10l0 61 77-77-61 0c-9 0-16 7-16 16z m120-352l-96 0c-4 0-8 4-8 8l0 64c0 4 4 8 8 8l96 0c4 0 8-4 8-8l0-64c0-4-4-8-8-8z m-88 16l80 0 0 48-80 0z m88 80l-96 0c-4 0-8 4-8 8l0 64c0 4 4 8 8 8l96 0c4 0 8-4 8-8l0-64c0-4-4-8-8-8z m-88 16l80 0 0 48-80 0z m136-112l-16 0c-4 0-8 4-8 8l0 16c0 4 4 8 8 8l16 0c4 0 8-4 8-8l0-16c0-4-4-8-8-8z m0 48l-16 0c-4 0-8 4-8 8l0 16c0 4 4 8 8 8l16 0c4 0 8-4 8-8l0-16c0-4-4-8-8-8z m0 48l-16 0c-4 0-8 4-8 8l0 16c0 4 4 8 8 8l16 0c4 0 8-4 8-8l0-16c0-4-4-8-8-8z m0 48l-16 0c-4 0-8 4-8 8l0 16c0 4 4 8 8 8l16 0c4 0 8-4 8-8l0-16c0-4-4-8-8-8z m-176-144l-16 0c-4 0-8 4-8 8l0 16c0 4 4 8 8 8l16 0c4 0 8-4 8-8l0-16c0-4-4-8-8-8z m0 48l-16 0c-4 0-8 4-8 8l0 16c0 4 4 8 8 8l16 0c4 0 8-4 8-8l0-16c0-4-4-8-8-8z m0 48l-16 0c-4 0-8 4-8 8l0 16c0 4 4 8 8 8l16 0c4 0 8-4 8-8l0-16c0-4-4-8-8-8z m0 48l-16 0c-4 0-8 4-8 8l0 16c0 4 4 8 8 8l16 0c4 0 8-4 8-8l0-16c0-4-4-8-8-8z"/>
<glyph unicode="&#57365;" d="M350 374l-88 88c-2 1-4 2-6 2l-160 0c-18 0-32-14-32-32l0-320c0-18 14-32 32-32l152 0c4 0 8 4 8 8 0 4-4 8-8 8l-152 0c-9 0-16 7-16 16l0 320c0 9 7 16 16 16l144 0 0-64c0-18 14-32 32-32l64 0 0-160c0-4 4-8 8-8 4 0 8 4 8 8l0 176c0 2-1 4-2 6z m-94 10l0 61 77-77-61 0c-9 0-16 7-16 16z m91-256l67 66c3 3 3 9 0 12-3 3-9 3-12 0l-66-67-66 67c-3 3-9 3-12 0-3-3-3-9 0-12l67-66-66-66c-4-3-4-8 0-11 1-2 3-3 5-3 2 0 4 1 6 3l66 66 66-67c2-1 4-2 6-2 2 0 4 1 6 2 3 3 3 9 0 12z"/>
<glyph unicode="&#57366;" d="M200 80l-88 0c-18 0-32 14-32 32l0 320c0 18 14 32 32 32 4 0 8-4 8-8 0-4-4-8-8-8-9 0-16-7-16-16l0-320c0-9 7-16 16-16l88 0c4 0 8-4 8-8 0-4-4-8-8-8z m160 192c-4 0-8 4-8 8l0 85-83 83-157 0c-4 0-8 4-8 8 0 4 4 8 8 8l160 0c2 0 4-1 6-2l88-88c1-2 2-4 2-6l0-88c0-4-4-8-8-8z m0 80l-72 0c-18 0-32 14-32 32l0 72c0 4 4 8 8 8 4 0 8-4 8-8l0-72c0-9 7-16 16-16l72 0c4 0 8-4 8-8 0-4-4-8-8-8z m-64-184c-4 0-7 3-8 7-1 4 2 8 7 9l128 24c4 1 8-2 9-7 1-4-2-8-7-9l-128-24c0 0-1 0-1 0z m-32-136c-24 0-40 13-40 32 0 19 16 32 40 32l20 0c2 0 4 2 4 4l0 124c0 4 3 7 7 8l128 24c2 0 4 0 6-2 2-1 3-4 3-6l0-160c0-19-16-32-40-32-24 0-40 13-40 32 0 19 16 32 40 32l20 0c2 0 4 2 4 4l0 114-112-21 0-153c0-19-16-32-40-32z m0 48c-11 0-24-4-24-16 0-12 13-16 24-16 11 0 24 4 24 16l0 16c-1 0-3 0-4 0z m128 24c-11 0-24-4-24-16 0-12 13-16 24-16 11 0 24 4 24 16l0 16c-1 0-3 0-4 0z"/>
<glyph unicode="&#57367;" d="M232 80l-120 0c-18 0-32 14-32 32l0 320c0 18 14 32 32 32 4 0 8-4 8-8 0-4-4-8-8-8-9 0-16-7-16-16l0-320c0-9 7-16 16-16l120 0c4 0 8-4 8-8 0-4-4-8-8-8z m128 128c-4 0-8 4-8 8l0 149-83 83-157 0c-4 0-8 4-8 8 0 4 4 8 8 8l160 0c2 0 4-1 6-2l88-88c1-2 2-4 2-6l0-152c0-4-4-8-8-8z m0 144l-72 0c-18 0-32 14-32 32l0 72c0 4 4 8 8 8 4 0 8-4 8-8l0-72c0-9 7-16 16-16l72 0c4 0 8-4 8-8 0-4-4-8-8-8z m-71-320c-18 0-33 15-33 33l0 126c0 18 15 33 33 33 7 0 13-2 19-6l93-63c10-6 15-17 15-28 0-11-5-21-15-27l-93-62c-6-4-12-6-19-6z m0 176c-9 0-17-8-17-17l0-126c0-9 8-17 17-17 4 0 7 1 10 3l93 62c5 3 8 8 8 14 0 6-3 11-8 14l-93 64c-3 2-6 3-10 3z"/>
<glyph unicode="&#57368;" d="M350 374l-88 88c-2 1-4 2-6 2l-160 0c-18 0-32-14-32-32l0-320c0-18 14-32 32-32l152 0c4 0 8 4 8 8 0 4-4 8-8 8l-152 0c-9 0-16 7-16 16l0 320c0 9 7 16 16 16l144 0 0-64c0-18 14-32 32-32l64 0 0-72c0-4 4-8 8-8 4 0 8 4 8 8l0 88c0 2-1 4-2 6z m-78-6c-9 0-16 7-16 16l0 61 77-77z m168-224l-88 0 0 88c0 4-4 8-8 8-4 0-8-4-8-8l0-88-88 0c-4 0-8-4-8-8 0-4 4-8 8-8l88 0 0-88c0-4 4-8 8-8 4 0 8 4 8 8l0 88 88 0c4 0 8 4 8 8 0 4-4 8-8 8z"/>
<glyph unicode="&#57369;" d="M366 374l-88 88c-2 1-4 2-6 2l-160 0c-18 0-32-14-32-32l0-320c0-18 14-32 32-32l120 0c4 0 8 4 8 8 0 4-4 8-8 8l-120 0c-9 0-16 7-16 16l0 320c0 9 7 16 16 16l144 0 0-64c0-18 14-32 32-32l64 0 0-72c0-4 4-8 8-8 4 0 8 4 8 8l0 88c0 2-1 4-2 6z m-94 10l0 61 77-77-61 0c-9 0-16 7-16 16z m76-352c-1 0-2 0-3 0-43 16-89 57-89 124l0 60c0 4 4 8 8 8 39 0 55 13 69 25 2 2 4 4 6 5 3 3 7 3 10 0 2-1 4-3 6-5 14-12 30-25 69-25 4 0 8-4 8-8l0-60c0-70-42-109-81-124-1 0-2 0-3 0z m-76 176l0-52c0-72 58-101 76-107 33 13 68 47 68 107l0 52c-39 2-57 17-71 29 0 0-1 0-1 1 0-1-1-1-1-1-14-12-32-27-71-29z"/>
<glyph unicode="&#57370;" d="M350 374l-88 88c-2 1-4 2-6 2l-160 0c-18 0-32-14-32-32l0-320c0-18 14-32 32-32l200 0c4 0 8 4 8 8 0 4-4 8-8 8l-200 0c-9 0-16 7-16 16l0 320c0 9 7 16 16 16l144 0 0-64c0-18 14-32 32-32l64 0 0-88c0-4 4-8 8-8 4 0 8 4 8 8l0 104c0 2-1 4-2 6z m-94 10l0 61 77-77-61 0c-9 0-16 7-16 16z m88-304c-4 0-8 4-8 8l0 16c0 17 15 31 28 42 5 5 10 9 14 13 4 5 6 11 6 17 0 18-18 32-40 32-22 0-40-14-40-32 0-4-4-8-8-8-4 0-8 4-8 8 0 26 25 48 56 48 31 0 56-22 56-48 0-10-3-19-10-27-4-5-9-10-15-15-11-9-23-20-23-30l0-16c0-4-4-8-8-8z m0-16c9 0 16-7 16-16 0-9-7-16-16-16-9 0-16 7-16 16 0 9 7 16 16 16z"/>
<glyph unicode="&#57371;" d="M440 256l-221 0 51 50c3 3 3 9 0 12-3 3-9 3-12 0l-64-64c0-1-1-2-1-3-1-2-1-4 0-6 0-1 1-2 1-3l64-64c2-1 4-2 6-2 2 0 4 1 6 2 3 3 3 9 0 12l-51 50 221 0c4 0 8 4 8 8 0 4-4 8-8 8z m-90 118l-88 88c-2 1-4 2-6 2l-160 0c-18 0-32-14-32-32l0-320c0-18 14-32 32-32l224 0c18 0 32 14 32 32l0 88c0 4-4 8-8 8-4 0-8-4-8-8l0-88c0-9-7-16-16-16l-224 0c-9 0-16 7-16 16l0 320c0 9 7 16 16 16l144 0 0-64c0-18 14-32 32-32l64 0 0-56c0-4 4-8 8-8 4 0 8 4 8 8l0 72c0 2-1 4-2 6z m-94 10l0 61 77-77-61 0c-9 0-16 7-16 16z"/>
<glyph unicode="&#57372;" d="M366 374l-88 88c-2 1-4 2-6 2l-160 0c-18 0-32-14-32-32l0-320c0-18 14-32 32-32l104 0c4 0 8 4 8 8 0 4-4 8-8 8l-104 0c-9 0-16 7-16 16l0 320c0 9 7 16 16 16l144 0 0-64c0-18 14-32 32-32l64 0 0-72c0-4 4-8 8-8 4 0 8 4 8 8l0 88c0 2-1 4-2 6z m-94 10l0 61 77-77-61 0c-9 0-16 7-16 16z m80-144c-44 0-80-36-80-80 0-19 7-37 18-51l-64-63c-3-3-3-9 0-12 2-1 4-2 6-2 2 0 4 1 6 2l63 64c14-11 32-18 51-18 44 0 80 36 80 80 0 44-36 80-80 80z m0-144c-35 0-64 29-64 64 0 35 29 64 64 64 35 0 64-29 64-64 0-35-29-64-64-64z"/>
<glyph unicode="&#57373;" d="M447 245c1 2 1 4 0 6 0 1-1 2-1 3l-64 64c-3 3-9 3-12 0-3-3-3-9 0-12l51-50-221 0c-4 0-8-4-8-8 0-4 4-8 8-8l221 0-51-50c-3-3-3-9 0-12 2-1 4-2 6-2 2 0 4 1 6 2l64 64c0 1 1 2 1 3z m-97 129l-88 88c-2 1-4 2-6 2l-160 0c-18 0-32-14-32-32l0-320c0-18 14-32 32-32l224 0c18 0 32 14 32 32l0 88c0 4-4 8-8 8-4 0-8-4-8-8l0-88c0-9-7-16-16-16l-224 0c-9 0-16 7-16 16l0 320c0 9 7 16 16 16l144 0 0-64c0-18 14-32 32-32l64 0 0-56c0-4 4-8 8-8 4 0 8 4 8 8l0 72c0 2-1 4-2 6z m-94 10l0 61 77-77-61 0c-9 0-16 7-16 16z"/>
<glyph unicode="&#57374;" d="M216 80l-120 0c-18 0-32 14-32 32l0 320c0 18 14 32 32 32 4 0 8-4 8-8 0-4-4-8-8-8-9 0-16-7-16-16l0-320c0-9 7-16 16-16l120 0c4 0 8-4 8-8 0-4-4-8-8-8z m128 208c-4 0-8 4-8 8l0 69-83 83-157 0c-4 0-8 4-8 8 0 4 4 8 8 8l160 0c2 0 4-1 6-2l88-88c1-2 2-4 2-6l0-72c0-4-4-8-8-8z m0 64l-72 0c-18 0-32 14-32 32l0 72c0 4 4 8 8 8 4 0 8-4 8-8l0-72c0-9 7-16 16-16l72 0c4 0 8-4 8-8 0-4-4-8-8-8z m-8-256c-26 0-48 22-48 48 0 26 22 48 48 48 26 0 48-22 48-48 0-26-22-48-48-48z m0 80c-18 0-32-14-32-32 0-18 14-32 32-32 18 0 32 14 32 32 0 18-14 32-32 32z m8-144l-16 0c-9 0-16 7-16 16l0 11c-7 2-13 5-19 8l-7-6c-6-6-16-6-22 0l-11 11c-7 6-7 16 0 22l6 7c-3 6-6 12-8 19l-11 0c-9 0-16 7-16 16l0 16c0 9 7 16 16 16l11 0c2 7 5 13 8 19l-6 7c-7 6-7 16 0 22l11 11c6 6 16 6 22 0l7-6c6 3 12 6 19 8l0 11c0 9 7 16 16 16l16 0c9 0 16-7 16-16l0-11c7-2 13-5 19-8l7 6c6 6 16 6 22 0l11-11c7-6 7-16 0-22l-6-7c3-6 6-12 8-19l11 0c9 0 16-7 16-16l0-16c0-9-7-16-16-16l-11 0c-2-7-5-13-8-19l6-7c3-3 5-7 5-11 0-4-2-8-5-11l-11-11c-6-6-16-6-22 0l-7 6c-6-3-12-6-19-8l0-11c0-9-7-16-16-16z m-52 53c1 0 3 0 4-1 8-5 16-9 26-11 3 0 6-4 6-7l0-18 16 0 0 18c0 3 3 7 6 7 10 2 18 6 26 11 3 2 7 2 10-1l11-11 11 11-11 11c-3 3-3 7-1 10 5 8 9 16 11 26 0 3 4 6 7 6l18 0 0 16-18 0c-3 0-7 3-7 6-2 9-6 18-11 26-2 3-2 7 1 10l11 11-11 11-11-11c-3-3-7-3-10-1-8 5-16 9-26 11-3 0-6 4-6 7l0 18-16 0 0-18c0-3-3-7-6-7-10-2-18-6-26-11-3-2-7-2-10 1l-11 11-11-11 11-11c3-3 3-7 1-10-5-8-9-16-11-26 0-3-4-6-7-6l-18 0 0-16 18 0c3 0 7-3 7-6 2-9 6-18 11-26 2-3 2-7-1-10l-11-11 11-11 11 11c2 2 4 2 6 2z"/>
<glyph unicode="&#57375;" d="M350 374l-88 88c-2 1-4 2-6 2l-160 0c-18 0-32-14-32-32l0-320c0-18 14-32 32-32l88 0c4 0 8 4 8 8 0 4-4 8-8 8l-88 0c-9 0-16 7-16 16l0 320c0 9 7 16 16 16l144 0 0-64c0-18 14-32 32-32l64 0 0-56c0-4 4-8 8-8 4 0 8 4 8 8l0 72c0 2-1 4-2 6z m-94 10l0 61 77-77-61 0c-9 0-16 7-16 16z m56-352c-57 0-104 47-104 104 0 57 47 104 104 104 4 0 8-4 8-8l0-88 88 0c4 0 8-4 8-8 0-57-47-104-104-104z m-8 192c-45-4-80-42-80-88 0-49 39-88 88-88 46 0 84 35 88 80l-88 0c-4 0-8 4-8 8z m136-64c0 0 0 0 0 0l-96 0c-4 0-8 4-8 8l0 96c0 4 4 8 8 8 57 0 103-46 104-102 0-1 0-1 0-2 0-4-3-8-8-8z m-88 16l80 0c-4 42-38 76-80 80z"/>
<glyph unicode="&#57376;" d="M366 374l-88 88c-2 1-4 2-6 2l-160 0c-18 0-32-14-32-32l0-320c0-18 14-32 32-32l184 0c4 0 8 4 8 8 0 4-4 8-8 8l-184 0c-9 0-16 7-16 16l0 320c0 9 7 16 16 16l144 0 0-64c0-18 14-32 32-32l64 0 0-120c0-4 4-8 8-8 4 0 8 4 8 8l0 136c0 2-1 4-2 6z m-94 10l0 61 77-77-61 0c-9 0-16 7-16 16z m136-192l-128 0c-4 0-8-4-8-8l0-16c0-4 4-8 8-8 4 0 8 4 8 8l0 8 48 0 0-128-8 0c-4 0-8-4-8-8 0-4 4-8 8-8l32 0c4 0 8 4 8 8 0 4-4 8-8 8l-8 0 0 128 48 0 0-8c0-4 4-8 8-8 4 0 8 4 8 8l0 16c0 4-4 8-8 8z"/>
<glyph unicode="&#57377;" d="M334 374l-88 88c-2 1-4 2-6 2l-160 0c-18 0-32-14-32-32l0-320c0-18 14-32 32-32l88 0c4 0 8 4 8 8 0 4-4 8-8 8l-88 0c-9 0-16 7-16 16l0 320c0 9 7 16 16 16l144 0 0-64c0-18 14-32 32-32l64 0 0-200c0-4 4-8 8-8 4 0 8 4 8 8l0 216c0 2-1 4-2 6z m-94 10l0 61 77-77-61 0c-9 0-16 7-16 16z m206-178c-3 3-9 3-12 0l-154-155-74 75c-3 3-9 3-12 0-3-3-3-9 0-12l80-80c2-1 4-2 6-2 2 0 4 1 6 2 0 0 0 0 0 0 0 1 0 1 0 1l160 159c3 3 3 9 0 12z"/>
<glyph unicode="&#57378;" d="M350 374l-88 88c-2 1-4 2-6 2l-160 0c-18 0-32-14-32-32l0-320c0-18 14-32 32-32l88 0c4 0 8 4 8 8 0 4-4 8-8 8l-88 0c-9 0-16 7-16 16l0 320c0 9 7 16 16 16l144 0 0-64c0-18 14-32 32-32l64 0 0-88c0-4 4-8 8-8 4 0 8 4 8 8l0 104c0 2-1 4-2 6z m-94 10l0 61 77-77-61 0c-9 0-16 7-16 16z m56-352c-57 0-104 47-104 104 0 57 47 104 104 104 57 0 104-47 104-104 0-57-47-104-104-104z m0 192c-49 0-88-39-88-88 0-49 39-88 88-88 49 0 88 39 88 88 0 49-39 88-88 88z m48-80l-40 0 0 56c0 4-4 8-8 8-4 0-8-4-8-8l0-64c0-4 4-8 8-8l48 0c4 0 8 4 8 8 0 4-4 8-8 8z"/>
<glyph unicode="&#57379;" d="M366 374l-88 88c-2 1-4 2-6 2l-160 0c-18 0-32-14-32-32l0-320c0-18 14-32 32-32l136 0c4 0 8 4 8 8 0 4-4 8-8 8l-136 0c-9 0-16 7-16 16l0 320c0 9 7 16 16 16l144 0 0-64c0-18 14-32 32-32l64 0 0-88c0-4 4-8 8-8 4 0 8 4 8 8l0 104c0 2-1 4-2 6z m-94 10l0 61 77-77-61 0c-9 0-16 7-16 16z m40-320c-4 0-8 4-8 8l0 96c0 4 4 8 8 8 4 0 8-4 8-8l0-96c0-4-4-8-8-8z m32 0c-4 0-8 4-8 8l0 96c0 4 4 8 8 8 4 0 8-4 8-8l0-96c0-4-4-8-8-8z m32 0c-4 0-8 4-8 8l0 96c0 4 4 8 8 8 4 0 8-4 8-8l0-96c0-4-4-8-8-8z m48 144l-40 0 0 0c0 18-14 32-32 32l-16 0c-18 0-32-14-32-32l0 0-40 0c-4 0-8-4-8-8 0-4 4-8 8-8l8 0 0-128c0-18 14-32 32-32l80 0c18 0 32 14 32 32l0 128 8 0c4 0 8 4 8 8 0 4-4 8-8 8z m-104 0c0 9 7 16 16 16l16 0c9 0 16-7 16-16l0 0-48 0z m80-144c0-9-7-16-16-16l-80 0c-9 0-16 7-16 16l0 128 112 0z"/>
<glyph unicode="&#57380;" d="M350 374l-88 88c-2 1-4 2-6 2l-160 0c-18 0-32-14-32-32l0-320c0-18 14-32 32-32l104 0c4 0 8 4 8 8 0 4-4 8-8 8l-104 0c-9 0-16 7-16 16l0 320c0 9 7 16 16 16l144 0 0-64c0-18 14-32 32-32l64 0 0-56c0-4 4-8 8-8 4 0 8 4 8 8l0 72c0 2-1 4-2 6z m-94 10l0 61 77-77-61 0c-9 0-16 7-16 16z m152-192l-128 0 0 16c0 26 22 48 48 48 18 0 35-11 43-27 2-4 7-6 11-4 4 2 6 6 4 10-11 23-33 37-58 37-35 0-64-29-64-64l0-16-16 0c-4 0-8-4-8-8l0-144c0-4 4-8 8-8l160 0c4 0 8 4 8 8l0 144c0 4-4 8-8 8z m-8-144l-144 0 0 128 144 0z m-56 80c0 9-7 16-16 16-9 0-16-7-16-16 0-6 3-11 8-14l0-26c0-4 4-8 8-8 4 0 8 4 8 8l0 26c5 3 8 8 8 14z"/>
<glyph unicode="&#57381;" d="M318 222l-64 64c-1 0-2 1-3 1-2 1-4 1-6 0-1 0-2-1-3-1l-64-64c-3-3-3-9 0-12 2-1 4-2 6-2 2 0 4 1 6 2l50 51 0-221c0-4 4-8 8-8 4 0 8 4 8 8l0 221 50-51c2-1 4-2 6-2 2 0 4 1 6 2 3 3 3 9 0 12z m80 152l-88 88c-2 1-4 2-6 2l-176 0c-18 0-32-14-32-32l0-320c0-18 14-32 32-32l72 0c4 0 8 4 8 8 0 4-4 8-8 8l-72 0c-9 0-16 7-16 16l0 320c0 9 7 16 16 16l160 0 0-64c0-18 14-32 32-32l64 0 0-240c0-9-7-16-16-16l-72 0c-4 0-8-4-8-8 0-4 4-8 8-8l72 0c18 0 32 14 32 32l0 256c0 2-1 4-2 6z m-94 10l0 61 77-77-61 0c-9 0-16 7-16 16z"/>
<glyph unicode="&#57382;" d="M350 374l-88 88c-2 1-4 2-6 2l-160 0c-18 0-32-14-32-32l0-320c0-18 14-32 32-32l104 0c4 0 8 4 8 8 0 4-4 8-8 8l-104 0c-9 0-16 7-16 16l0 320c0 9 7 16 16 16l144 0 0-64c0-18 14-32 32-32l64 0 0-88c0-4 4-8 8-8 4 0 8 4 8 8l0 104c0 2-1 4-2 6z m-78-6c-9 0-16 7-16 16l0 61 77-77z m64-272c-34 0-48 47-48 72 0 36 17 56 48 56 31 0 48-20 48-56 0-25-14-72-48-72z m0 112c-14 0-32-4-32-40 0-20 11-56 32-56 21 0 32 36 32 56 0 36-18 40-32 40z m0-176c-42 0-112 3-112 24 0 0 0 1 0 1 3 26 13 55 64 55 0 0 0 0 0 0 4 0 8-3 8-8 0-4-4-8-8-8-34 0-44-14-48-38 9-4 47-10 96-10 49 0 87 6 96 10-4 24-14 38-48 38-4 0-8 4-8 8 0 5 4 8 8 8 0 0 0 0 0 0 51 0 61-29 64-55 0 0 0-1 0-1 0-21-70-24-112-24z"/>
<glyph unicode="&#57383;" d="M200 80l-88 0c-18 0-32 14-32 32l0 320c0 18 14 32 32 32 4 0 8-4 8-8 0-4-4-8-8-8-9 0-16-7-16-16l0-320c0-9 7-16 16-16l88 0c4 0 8-4 8-8 0-4-4-8-8-8z m160 176c-4 0-8 4-8 8l0 101-83 83-157 0c-4 0-8 4-8 8 0 4 4 8 8 8l160 0c2 0 4-1 6-2l88-88c1-2 2-4 2-6l0-104c0-4-4-8-8-8z m0 96l-72 0c-18 0-32 14-32 32l0 72c0 4 4 8 8 8 4 0 8-4 8-8l0-72c0-9 7-16 16-16l72 0c4 0 8-4 8-8 0-4-4-8-8-8z m72-320l-176 0c-18 0-32 14-32 32 0 7 3 13 3 14 0 0 1 1 1 1l90 147c6 9 16 14 26 14 10 0 20-5 26-13l90-148c0 0 1-1 1-1 0-1 3-8 3-14 0-18-14-32-32-32z m-190 39c-1-2-2-5-2-7 0-9 7-16 16-16l176 0c9 0 16 7 16 16 0 2-1 5-2 7l-89 147c-3 3-8 6-13 6-5 0-10-3-13-7z m102 41c-4 0-8 4-8 8l0 64c0 4 4 8 8 8 4 0 8-4 8-8l0-64c0-4-4-8-8-8z m0-32c-2 0-4 1-6 2-1 2-2 4-2 6 0 2 1 4 2 6 3 3 9 3 12 0 1-2 2-4 2-6 0-2-1-4-2-6-2-1-4-2-6-2z"/>
</font>
</defs>
</svg>
