<?xml version="1.0" standalone="no"?>
<!DOCTYPE svg PUBLIC "-//W3C//DTD SVG 1.1//EN" "http://www.w3.org/Graphics/SVG/1.1/DTD/svg11.dtd">
<svg xmlns="http://www.w3.org/2000/svg">
<metadata>Generated by Fontastic.me</metadata>
<defs>
<font id="native-ios" horiz-adv-x="512">
<font-face font-family="native-ios" units-per-em="512" ascent="480" descent="-32"/>
<missing-glyph horiz-adv-x="512" />

<glyph unicode="&#57344;" d="M448 416l-384 0 0-240 136 0-91-96 294 0-91 96 136 0z m-301-320l109 116 109-116z m285 96l-135 0-41 44-41-44-135 0 0 208 352 0z"/>
<glyph unicode="&#57345;" d="M256 48c-97 0-176 79-176 176 0 97 79 176 176 176 97 0 176-79 176-176 0-97-79-176-176-176z m0 336c-88 0-160-72-160-160 0-88 72-160 160-160 88 0 160 72 160 160 0 88-72 160-160 160z m16-176l-96 0 0 16 80 0 0 128 16 0z m-136-101l11-11-45-46-12 12z m240 0l46-45-12-12-45 46z m-306 207l-5 9c-6 12-9 24-9 37 0 44 36 80 80 80 18 0 35-6 49-17l8-6z m66 110c-35 0-64-29-64-64 0-7 1-14 3-20l92 76c-10 5-20 8-31 8z m306-110l-123 103 8 6c14 11 31 17 49 17 44 0 80-36 80-80 0-13-3-26-9-37z m-97 102l92-76c2 6 3 13 3 20 0 35-29 64-64 64-11 0-21-3-31-8z"/>
<glyph unicode="&#57346;" d="M464 64l-432 0 0 320 432 0z m-416 16l400 0 0 288-400 0z m16 336l368 0 0-16-368 0z m32 32l304 0 0-16-304 0z"/>
<glyph unicode="&#57347;" d="M416 432l-128 0c-17 0-31-9-40-22-9 13-23 22-40 22l-128 0c-18 0-32-14-32-32l0-256c0-18 14-32 32-32l128 0c18 0 32-14 32-32l16 0 0 0c0 18 14 32 32 32l128 0c18 0 32 14 32 32l0 256c0 18-14 32-32 32z m-208-304l-128 0c-9 0-16 7-16 16l0 256c0 9 7 16 16 16l128 0c18 0 32-14 32-32l0-268c-8 7-20 12-32 12z m224 16c0-9-7-16-16-16l-128 0c-12 0-24-5-32-12l0 268c0 18 14 32 32 32l128 0c9 0 16-7 16-16z"/>
<glyph unicode="&#57348;" d="M368 64l-304 0 0 304 304 0z m-288 16l272 0 0 272-272 0z m368 64l-64 0 0 16 48 0 0 272-272 0 0-48-16 0 0 64 304 0z"/>
<glyph unicode="&#57349;" d="M448 248c0 110-90 200-200 200-110 0-200-90-200-200 0-56 23-107 60-143l0 0 9-8c0 0 1-1 1-1 4-3 8-7 12-10 1 0 2 0 2-1 5-3 9-6 14-9 0 0 0 0 1 0 15-9 31-16 48-21 0 0 0 0 0 0 6-1 11-3 17-4 0 0 1 0 1 0 6-1 11-2 16-2 1 0 2 0 2 0 6-1 11-1 17-1 6 0 11 0 17 1 0 0 1 0 2 0 5 0 10 1 16 2 0 0 1 0 1 0 6 1 11 3 17 4 0 0 0 0 0 0 17 5 33 12 48 21 1 0 1 0 1 0 5 3 9 6 14 9 0 0 1 1 1 1 5 3 9 7 13 10 0 0 0 1 1 1l9 8-1 0c38 36 61 87 61 143z m-81-133l0 0c-4 2-12 5-23 9-11 4-20 6-29 8l-8 2c-5 1-8 1-8 1 0 0 0 0 0 0l0 0c-1 1-4 13-5 26-2 14 0 22 0 22l0 0c1 1 9 5 12 10l0 1c3 7 5 37 5 37l11 5 7 31 0 14-7 8c0 1 4 19 4 38 0 16-3 30-4 36l-1 2-1 2c-6 5-20 19-34 25-18 8-35 8-35 8 0 0-1 0-3 0-2 0-3 0-3 0 0 0-17 0-35-8-14-6-28-20-34-25l-1-2-1-2c-1-6-4-20-4-36 0-20 4-38 4-38l-7-8 0-12 7-33 11-5c0 0 2-30 5-37l0-1c3-5 12-10 12-10 0 0 2-8 0-22-1-13-4-25-5-26-1 0-4-1-8-1l-8-2c-9-2-19-4-29-8-12-4-21-8-23-9l0 0-5-3c-37 34-60 82-60 136 0 101 83 184 184 184 101 0 184-83 184-184 0-54-23-102-60-136z"/>
<glyph unicode="&#57350;" d="M416 32l-304 0 0 304 112 0 0-16-96 0 0-272 272 0 0 272-96 0 0 16 112 0z m-94 238l-50-51 0 245-16 0 0-245-50 51-12-12 70-69 70 69z"/>
<glyph unicode="&#57351;" d="M400 43l-136 99-136-99 55 162-135 99 162 0 54 161 54-161 162 0-135-99z m-136 119l104-77-41 126 105 77-126 0-42 127-42-127-126 0 105-77-41-126z"/>
<glyph unicode="&#57352;" d="M48 416l0-336 400 0 0 336z m80-16l240 0 0-144-240 0z m-64 0l48 0 0-48-48 0z m0-64l48 0 0-48-48 0z m0-64l48 0 0-48-48 0z m0-64l48 0 0-48-48 0z m48-112l-48 0 0 48 48 0z m256 0l-240 0 0 144 240 0z m64 0l-48 0 0 48 48 0z m0 64l-48 0 0 48 48 0z m0 64l-48 0 0 48 48 0z m0 64l-48 0 0 48 48 0z m-48 64l0 48 48 0 0-48z"/>
<glyph unicode="&#57353;" d="M416 444l-12-6c0-1-39-22-76-22-19 0-50 8-79 16-31 8-60 16-81 16-40 0-66-10-67-11l-5-2 0-387 16 0 0 178c8 4 29 13 63 13 14 0 39-6 66-14 32-8 65-17 86-17 41 0 82 15 84 15l5 2z m-16-208c-12-3-43-12-73-12-19 0-52 9-82 17-28 7-54 14-70 14-30 0-51-6-63-11l0 180c9 3 29 8 56 8 18 0 48-8 77-16 30-8 62-16 83-16 29 0 57 11 72 18z"/>
<glyph unicode="&#57354;" d="M104 336c-31 0-56 25-56 56 0 31 25 56 56 56 31 0 56-25 56-56 0-31-25-56-56-56z m0 96c-22 0-40-18-40-40 0-22 18-40 40-40 22 0 40 18 40 40 0 22-18 40-40 40z m144-96c-31 0-56 25-56 56 0 31 25 56 56 56 31 0 56-25 56-56 0-31-25-56-56-56z m0 96c-22 0-40-18-40-40 0-22 18-40 40-40 22 0 40 18 40 40 0 22-18 40-40 40z m144-96c-31 0-56 25-56 56 0 31 25 56 56 56 31 0 56-25 56-56 0-31-25-56-56-56z m0 96c-22 0-40-18-40-40 0-22 18-40 40-40 22 0 40 18 40 40 0 22-18 40-40 40z m-288-240c-31 0-56 25-56 56 0 31 25 56 56 56 31 0 56-25 56-56 0-31-25-56-56-56z m0 96c-22 0-40-18-40-40 0-22 18-40 40-40 22 0 40 18 40 40 0 22-18 40-40 40z m144-96c-31 0-56 25-56 56 0 31 25 56 56 56 31 0 56-25 56-56 0-31-25-56-56-56z m0 96c-22 0-40-18-40-40 0-22 18-40 40-40 22 0 40 18 40 40 0 22-18 40-40 40z m144-96c-31 0-56 25-56 56 0 31 25 56 56 56 31 0 56-25 56-56 0-31-25-56-56-56z m0 96c-22 0-40-18-40-40 0-22 18-40 40-40 22 0 40 18 40 40 0 22-18 40-40 40z m-288-240c-31 0-56 25-56 56 0 31 25 56 56 56 31 0 56-25 56-56 0-31-25-56-56-56z m0 96c-22 0-40-18-40-40 0-22 18-40 40-40 22 0 40 18 40 40 0 22-18 40-40 40z m144-96c-31 0-56 25-56 56 0 31 25 56 56 56 31 0 56-25 56-56 0-31-25-56-56-56z m0 96c-22 0-40-18-40-40 0-22 18-40 40-40 22 0 40 18 40 40 0 22-18 40-40 40z m144-96c-31 0-56 25-56 56 0 31 25 56 56 56 31 0 56-25 56-56 0-31-25-56-56-56z m0 96c-22 0-40-18-40-40 0-22 18-40 40-40 22 0 40 18 40 40 0 22-18 40-40 40z"/>
<glyph unicode="&#57355;" d="M112 144c-62 0-112 50-112 112 0 62 50 112 112 112 62 0 112-50 112-112 0-62-50-112-112-112z m0 208c-53 0-96-43-96-96 0-53 43-96 96-96 53 0 96 43 96 96 0 53-43 96-96 96z m272-208c-62 0-112 50-112 112 0 62 50 112 112 112 62 0 112-50 112-112 0-62-50-112-112-112z m0 208c-53 0-96-43-96-96 0-53 43-96 96-96 53 0 96 43 96 96 0 53-43 96-96 96z m-272-192l272 0 0-16-272 0z"/>
<glyph unicode="&#57356;" d="M88 208c-22 0-40 18-40 40 0 22 18 40 40 40 22 0 40-18 40-40 0-22-18-40-40-40z m0 64c-13 0-24-11-24-24 0-13 11-24 24-24 13 0 24 11 24 24 0 13-11 24-24 24z m160-64c-22 0-40 18-40 40 0 22 18 40 40 40 22 0 40-18 40-40 0-22-18-40-40-40z m0 64c-13 0-24-11-24-24 0-13 11-24 24-24 13 0 24 11 24 24 0 13-11 24-24 24z m160-64c-22 0-40 18-40 40 0 22 18 40 40 40 22 0 40-18 40-40 0-22-18-40-40-40z m0 64c-13 0-24-11-24-24 0-13 11-24 24-24 13 0 24 11 24 24 0 13-11 24-24 24z"/>
<glyph unicode="&#57357;" d="M248 64c-110 0-200 90-200 200 0 110 90 200 200 200 110 0 200-90 200-200 0-110-90-200-200-200z m0 384c-101 0-184-83-184-184 0-101 83-184 184-184 101 0 184 83 184 184 0 101-83 184-184 184z m88-96l-213-96 117 0 0-117z"/>
<glyph unicode="&#57358;" d="M368 64l-304 0 0 304 232 0 0-16-216 0 0-272 272 0 0 216 16 0z m26 318l-170-171-13 13 171 170-12 12-178-179 0-35 35 0 179 178z m33 29l-16 16c-3 3-7 5-11 5-4 0-8-2-11-5l-12-11 39-39 6 6 0 0 5 6c3 3 5 7 5 11 0 4-2 8-5 11z"/>
<glyph unicode="&#57359;" d="M182 98l-12 12 147 146-147 146 12 12 157-158z"/>
<glyph unicode="&#57360;" d="M400 368l0 64-368 0 0-288 64 0 0-64 368 0 0 288z m-352-208l0 256 336 0 0-48-288 0 0-208z m400-64l-336 0 0 256 336 0z"/>
<glyph unicode="&#57361;" d="M432 64l-368 0 0 368 368 0z m-352 16l336 0 0 336-336 0z m176 256l-144 0 0-16 144 0z m0-48l-144 0 0-16 144 0z m0-48l-144 0 0-16 144 0z m32 146l0-182c0-11-9-20-20-20l-20 0 0 0c-22-2-40-17-40-36 0-21 17-36 40-36 31 0 56 16 56 36l0 170 80-16 0 65z"/>
<glyph unicode="&#57362;" d="M314 98l-157 158 157 158 12-12-147-146 147-146z"/>
<glyph unicode="&#57363;" d="M512 256l-16 0c-5 54-49 96-104 96-49 0-90-34-101-79-9 9-21 15-35 15-14 0-26-6-35-15-11 45-52 79-101 79-55 0-99-42-104-96l-16 0 0-16 16 0c5-54 49-96 104-96 55 0 99 42 104 96l0 0c0 18 14 32 32 32 18 0 32-14 32-32l0 0c5-54 49-96 104-96 55 0 99 42 104 96l16 0z m-392-96c-49 0-88 39-88 88 0 49 39 88 88 88 49 0 88-39 88-88 0-49-39-88-88-88z m272 0c-49 0-88 39-88 88 0 49 39 88 88 88 49 0 88-39 88-88 0-49-39-88-88-88z"/>
<glyph unicode="&#57364;" d="M256 64c-106 0-192 86-192 192 0 106 86 192 192 192 106 0 192-86 192-192 0-106-86-192-192-192z m0 368c-97 0-176-79-176-176 0-97 79-176 176-176 97 0 176 79 176 176 0 97-79 176-176 176z m-96-192l0 16 96 0 0 128 16 0 0-144z"/>
<glyph unicode="&#57365;" d="M448 95l-15 20c-67 97-110 101-177 101l0-87-198 135 198 135 0-87c133-2 192-62 192-192z m-208 137l8 0c67 0 116 0 183-87-7 107-62 151-183 151l-8 0 0 73-154-105 154-105z"/>
<glyph unicode="&#57366;" d="M432 86l-114 114c21 26 34 60 34 96 0 84-68 152-152 152-84 0-152-68-152-152 0-84 68-152 152-152 36 0 70 13 96 34l114-114z m-368 210c0 75 61 136 136 136 75 0 136-61 136-136 0-75-61-136-136-136-75 0-136 61-136 136z"/>
<glyph unicode="&#57367;" d="M248 48c-101 0-184 83-184 184 0 101 83 184 184 184 101 0 184-83 184-184 0-101-83-184-184-184z m0 352c-93 0-168-75-168-168 0-93 75-168 168-168 93 0 168 75 168 168 0 93-75 168-168 168z m0-192c-13 0-24 11-24 24 0 13 11 24 24 24 13 0 24-11 24-24 0-13-11-24-24-24z m0 32c-4 0-8-4-8-8 0-4 4-8 8-8 4 0 8 4 8 8 0 4-4 8-8 8z m-8 128l16 0 0-184-16 0z m-8 88l32 0 0-56-32 0z m161-37l34-34-17-17-34 34z m0-22l12-12-17-17-12 12z"/>
<glyph unicode="&#57368;" d="M480 128l-464 0 0 288 464 0z m-448 16l432 0 0 256-432 0z m88-32l256 0 0-16-256 0z"/>
<glyph unicode="&#57369;" d="M248 48c-110 0-200 90-200 200 0 53 21 104 59 141l11-11c-35-35-54-81-54-130 0-101 83-184 184-184 101 0 184 83 184 184 0 99-78 180-176 184l0-80-16 0 0 96 8 0c110 0 200-90 200-200 0-110-90-200-200-200z m11 211c7-6 7-16 0-22-6-7-16-7-22 0l-56 78z m-11-35c-6 0-12 3-17 7l-1 1-84 118 119-85c5-5 7-11 7-17 0-6-3-12-7-17-5-4-11-7-17-7z m-5 18c3-3 8-3 11 0 1 2 2 4 2 6 0 2-1 4-2 5l-39 28z"/>
<glyph unicode="&#57370;" d="M111 351l-31 22-31-22 13 36-30 22 36 0 12 35 12-35 36 0-30-22z m0-144l-31 22-31-22 13 36-30 22 36 0 12 35 12-35 36 0-30-22z m0-144l-31 22-31-22 13 36-30 22 36 0 12 35 12-35 36 0-30-22z m49 49l304 0 0-16-304 0z m0 144l304 0 0-16-304 0z m0 144l304 0 0-16-304 0z"/>
<glyph unicode="&#57371;" d="M96 400l304 0 0-16-304 0z m224-8l-16 0 0 24c0 9-7 16-16 16l-80 0c-9 0-16-7-16-16l0-24-16 0 0 24c0 18 14 32 32 32l80 0c18 0 32-14 32-32z m-120-40l8-256-16 0-8 256z m96 0l16 0-8-256-16 0z m-56 0l16 0 0-256-16 0z m88-304l-160 0c-17 0-30 12-32 31l-24 312 16 2 24-312c1-8 6-17 16-17l160 0c10 0 15 9 16 17l24 312 16-2-24-312c-2-18-16-31-32-31z"/>
<glyph unicode="&#57372;" d="M400 32l-304 0 0 304 112 0 0-16-96 0 0-272 272 0 0 272-96 0 0 16 112 0z m-82 366l-70 69-70-69 12-12 50 51 0-245 16 0 0 245 50-51z"/>
<glyph unicode="&#57373;" d="M248 64c-101 0-184 83-184 184 0 101 83 184 184 184 101 0 184-83 184-184 0-101-83-184-184-184z m0 352c-93 0-168-75-168-168 0-93 75-168 168-168 93 0 168 75 168 168 0 93-75 168-168 168z m-8 8l16 0 0-352-16 0z m-168-168l352 0 0-16-352 0z m176-192c-54 0-96 81-96 184 0 103 42 184 96 184 54 0 96-81 96-184 0-103-42-184-96-184z m0 352c-43 0-80-77-80-168 0-91 37-168 80-168 43 0 80 77 80 168 0 91-37 168-80 168z m0-88c-51 0-101 11-135 30l8 14c32-18 78-28 127-28 49 0 95 10 127 28l8-14c-34-19-84-30-135-30z m127-204c-32 18-78 28-127 28-49 0-95-10-127-28l-8 14c35 19 84 30 135 30 51 0 101-11 135-30z"/>
</font>
</defs>
</svg>
