<?xml version="1.0" standalone="no"?>
<!DOCTYPE svg PUBLIC "-//W3C//DTD SVG 1.1//EN" "http://www.w3.org/Graphics/SVG/1.1/DTD/svg11.dtd">
<svg xmlns="http://www.w3.org/2000/svg">
<metadata>Generated by Fontastic.me</metadata>
<defs>
<font id="technology" horiz-adv-x="512">
<font-face font-family="technology" units-per-em="512" ascent="480" descent="-32"/>
<missing-glyph horiz-adv-x="512" />

<glyph unicode="&#57344;" d="M463 131l-16 40c0 0 0 0 0 0 0 0 0 0 0 1 0 0-1 1-1 2 0 0-1 0-1 0 0 0-1 1-2 1 0 0 0 0 0 0 0 1-1 0-1 1 0 0-1 0-2 0 0 0-1 0-1 0-1 0-1 0-1 0l-40-13c-5-1-7-5-6-10 2-4 6-6 10-5l23 7c-34-63-98-104-169-107l0 272 40 0c4 0 8 4 8 8 0 4-4 8-8 8l-40 0 0 49c18 4 32 20 32 39 0 22-18 40-40 40-22 0-40-18-40-40 0-19 14-35 32-39l0-49-40 0c-4 0-8-4-8-8 0-4 4-8 8-8l40 0 0-272c-72 3-136 44-169 107l23-7c4-1 8 1 10 5 1 5-1 9-6 10l-40 13c0 0 0 0-1 0 0 0-1 0-1 0-1 0-2 0-2 0 0-1-1 0-1-1 0 0 0 0 0 0-1 0-2 0-2-1 0 0-1 0-1 0 0-1-1-2-1-2 0 0 0-1 0-1 0 0 0 0 0 0l-16-40c-2-4 0-9 4-10 1-1 2-1 3-1 3 0 6 2 7 5l10 23c37-71 110-116 191-116 81 0 154 45 191 116l10-23c1-3 4-5 7-5 1 0 2 0 3 1 4 1 6 6 4 10z m-239 293c0 13 11 24 24 24 13 0 24-11 24-24 0-13-11-24-24-24-13 0-24 11-24 24z"/>
<glyph unicode="&#57345;" d="M248 32c-87 0-152 69-152 160l0 128c0 91 65 160 152 160 87 0 152-69 152-160l0-128c0-91-65-160-152-160z m0 432c-78 0-136-62-136-144l0-128c0-82 58-144 136-144 78 0 136 62 136 144l0 128c0 82-58 144-136 144z m0-384c-1 0-2 0-3 1-3 1-5 4-5 7l0 146-83-72c-3-3-8-3-11 1-3 3-3 8 1 11l93 82 0 0-93 82c-4 3-4 8-1 11 3 4 8 4 11 1l83-72 0 146c0 3 2 6 5 7 3 2 6 1 8-1l96-88c2-2 3-4 3-6 0-2-1-5-3-6l-84-74 84-74c2-1 3-4 3-6 0-2-1-4-3-6l-96-88c-1-1-3-2-5-2z m8 162l0-136 76 70z m0 164l0-136 76 66z"/>
<glyph unicode="&#57346;" d="M392 144l-64 0c-4 0-8 4-8 8 0 4 4 8 8 8l64 0c40 0 72 32 72 72 0 35-25 64-59 71-4 1-7 5-6 9 1 5 1 11 1 16 0 57-47 104-104 104-46 0-87-31-100-74 0-3-3-5-5-6-3 0-6 0-8 2-9 9-22 14-35 14-29 0-52-23-52-52 0-3 0-6 1-9 0-4-2-7-5-9-27-11-44-37-44-66 0-40 32-72 72-72l112 0c4 0 8-4 8-8 0-4-4-8-8-8l-112 0c-49 0-88 39-88 88 0 33 19 64 48 79 0 1 0 3 0 5 0 37 31 68 68 68 13 0 26-4 37-11 18 45 62 75 111 75 66 0 120-54 120-120 0-4 0-7-1-11 38-11 65-45 65-85 0-49-39-88-88-88z m-42-18c-3 3-9 3-12 0l-50-51 0 221c0 4-4 8-8 8-4 0-8-4-8-8l0-221-50 51c-3 3-9 3-12 0-3-3-3-9 0-12l64-64c1 0 2-1 3-1 1-1 2-1 3-1 1 0 2 0 3 1 1 0 2 1 3 1l64 64c3 3 3 9 0 12z"/>
<glyph unicode="&#57347;" d="M336 192l-232 0c-40 0-72 32-72 72 0 31 20 59 49 68-1 4-1 8-1 12 0 31 25 56 56 56 12 0 24-4 34-11 17 36 53 59 94 59 57 0 103-46 104-103 29-12 48-41 48-73 0-44-36-80-80-80z m-244 127c-25-6-44-29-44-55 0-31 25-56 56-56l232 0c35 0 64 29 64 64 0 27-17 51-43 60-3 2-5 5-5 8 0 1 0 3 0 4 0 49-39 88-88 88-38 0-71-24-83-60-1-2-3-4-5-5-2-1-5-1-7 0-1 1-1 2-2 2-8 10-19 15-31 15-22 0-40-18-40-40 0-5 1-10 3-14 0 0 0-1 0-1 1-4-1-8-5-10-1 0-1 0-2 0z m380-175l-192 0c-4 0-8 4-8 8 0 4 4 8 8 8l192 0c4 0 8-4 8-8 0-4-4-8-8-8z"/>
<glyph unicode="&#57348;" d="M280 192l-176 0c-40 0-72 32-72 72 0 31 20 59 49 68-1 4-1 8-1 12 0 31 25 56 56 56 12 0 24-4 34-11 17 36 53 59 94 59 57 0 103-46 104-103 29-12 48-41 48-73 0-16-5-31-13-44-3-4-8-5-12-3-3 3-4 8-2 11 7 11 11 23 11 36 0 27-17 51-43 60-3 2-5 5-5 8 0 1 0 3 0 4 0 49-39 88-88 88-38 0-71-24-83-59-1-2-1-3-2-3-2-3-6-4-10-3-1 1-2 2-2 3-8 9-19 14-31 14-22 0-40-18-40-40 0-5 1-10 3-14 0 0 0-1 0-1 1-4-1-8-5-10-1 0-1 0-2 0-25-6-44-29-44-55 0-31 25-56 56-56l176 0c4 0 8-4 8-8 0-4-4-8-8-8z m131-48l67 66c3 3 3 9 0 12-3 3-9 3-12 0l-66-67-66 67c-3 3-9 3-12 0-3-3-3-9 0-12l67-66-66-66c-4-3-4-8 0-11 1-2 3-3 5-3 2 0 4 1 6 3l66 66 66-67c2-1 4-2 6-2 2 0 4 1 6 2 3 3 3 9 0 12z"/>
<glyph unicode="&#57349;" d="M312 192l-208 0c-40 0-72 32-72 72 0 31 20 59 49 68-1 4-1 8-1 12 0 31 25 56 56 56 12 0 24-4 34-11 17 36 53 59 94 59 57 0 103-46 104-103 29-12 48-41 48-73 0-9-2-18-5-27-1-4-6-6-10-5-4 2-6 7-5 11 3 6 4 14 4 21 0 27-17 51-43 60-3 2-5 5-5 8 0 1 0 3 0 4 0 49-39 88-88 88-38 0-71-24-83-59-1-2-1-3-2-3-2-3-6-4-10-3-1 1-2 2-2 3-8 9-19 14-31 14-22 0-40-18-40-40 0-5 1-10 3-14 0 0 0-1 0-1 1-4-1-8-5-10-1 0-1 0-2 0-25-6-44-29-44-55 0-31 25-56 56-56l208 0c4 0 8-4 8-8 0-4-4-8-8-8z m144-32l-88 0 0 88c0 4-4 8-8 8-4 0-8-4-8-8l0-88-88 0c-4 0-8-4-8-8 0-4 4-8 8-8l88 0 0-88c0-4 4-8 8-8 4 0 8 4 8 8l0 88 88 0c4 0 8 4 8 8 0 4-4 8-8 8z"/>
<glyph unicode="&#57350;" d="M336 192l-232 0c-40 0-72 32-72 72 0 31 20 59 49 68-1 4-1 8-1 12 0 31 25 56 56 56 12 0 24-4 34-11 17 36 53 59 94 59 57 0 103-46 104-103 29-12 48-41 48-73 0-44-36-80-80-80z m-244 127c-25-6-44-29-44-55 0-31 25-56 56-56l232 0c35 0 64 29 64 64 0 27-17 51-43 60-3 2-5 5-5 8 0 1 0 3 0 4 0 49-39 88-88 88-38 0-71-24-83-60-1-2-3-4-5-5-2-1-5-1-7 0-1 1-1 2-2 2-8 10-19 15-31 15-22 0-40-18-40-40 0-5 1-10 3-14 0 0 0-1 0-1 1-4-1-8-5-10-1 0-1 0-2 0z m386-97c-3 3-9 3-12 0l-154-155-74 75c-3 3-9 3-12 0-3-3-3-9 0-12l80-80c2-1 4-2 6-2 2 0 4 1 6 2 0 0 0 0 0 0 0 1 0 1 0 1l160 159c3 3 3 9 0 12z"/>
<glyph unicode="&#57351;" d="M392 144l-64 0c-4 0-8 4-8 8 0 4 4 8 8 8l64 0c40 0 72 32 72 72 0 35-25 64-59 71-4 1-7 5-6 9 1 5 1 11 1 16 0 57-47 104-104 104-46 0-87-31-100-74 0-3-3-5-5-6-3 0-6 0-8 2-9 9-22 14-35 14-29 0-52-23-52-52 0-3 0-6 1-9 0-4-2-7-5-9-27-11-44-37-44-66 0-40 32-72 72-72l112 0c4 0 8-4 8-8 0-4-4-8-8-8l-112 0c-49 0-88 39-88 88 0 33 19 64 48 79 0 1 0 3 0 5 0 37 31 68 68 68 13 0 26-4 37-11 18 45 62 75 111 75 66 0 120-54 120-120 0-4 0-7-1-11 38-11 65-45 65-85 0-49-39-88-88-88z m-42 94l-64 64c-1 0-2 1-3 1-2 1-4 1-6 0-1 0-2-1-3-1l-64-64c-3-3-3-9 0-12 3-3 9-3 12 0l50 51 0-221c0-4 4-8 8-8 4 0 8 4 8 8l0 221 50-51c2-1 4-2 6-2 2 0 4 1 6 2 3 3 3 9 0 12z"/>
<glyph unicode="&#57352;" d="M256 480c-85 0-176-18-176-56l0-336c0-38 91-56 176-56 85 0 176 18 176 56l0 336c0 38-91 56-176 56z m160-280c0-16-57-40-160-40-103 0-160 24-160 40l0 87c30-21 97-31 160-31 63 0 130 10 160 31z m0 112c0-16-57-40-160-40-103 0-160 24-160 40l0 87c30-21 97-31 160-31 63 0 130 10 160 31z m-160 152c103 0 160-24 160-40 0-16-57-40-160-40-103 0-160 24-160 40 0 16 57 40 160 40z m0-416c-103 0-160 24-160 40l0 87c30-21 97-31 160-31 63 0 130 10 160 31l0-87c0-16-57-40-160-40z"/>
<glyph unicode="&#57353;" d="M200 464c-76 0-152-15-152-48l0-288c0-33 76-48 152-48 11 0 22 0 32 1 5 0 8 4 8 8 0 5-4 8-8 8-11-1-21-1-32-1-88 0-136 19-136 32l0 73c26-17 81-25 136-25 76 0 152 15 152 48l0 192c0 33-76 48-152 48z m136-144c0-13-48-32-136-32-88 0-136 19-136 32l0 73c26-17 81-25 136-25 55 0 110 8 136 25z m-136 128c88 0 136-19 136-32 0-13-48-32-136-32-88 0-136 19-136 32 0 13 48 32 136 32z m0-256c-88 0-136 19-136 32l0 73c26-17 81-25 136-25 55 0 110 8 136 25l0-73c0-13-48-32-136-32z m258 26l-16 16c-8 8-21 7-28 0l-14-13c0 0 0 0-1 0 0 0 0 0 0 0l-121-123c0 0 0 0 0 0 0 0 0 0 0 0l-3-3c-1 0-1-1-2-2l-32-65c-2-4-1-7 1-10 2-1 4-2 6-2 1 0 2 0 4 1l65 32c1 1 2 1 2 2l125 125 14 14c8 7 8 20 0 28z m-173-138l19-19-38-19z m32-9l-22 22 110 111 22-22z m130 130l-9-8-21 22 8 8c1 1 2 1 3 1 0 0 1 0 2-1l17-17c1-1 1-4 0-5z"/>
<glyph unicode="&#57354;" d="M208 464c-76 0-152-15-152-48l0-288c0-33 76-48 152-48 41 0 79 4 106 12 4 1 7 6 6 10-2 4-6 7-10 5-26-7-62-11-102-11-88 0-136 19-136 32l0 73c26-17 81-25 136-25 27 0 51 2 73 5 5 1 8 5 7 9-1 5-5 8-9 7-21-3-45-5-71-5-88 0-136 19-136 32l0 73c26-17 81-25 136-25 55 0 110 8 136 25l0-25c0-4 4-8 8-8 4 0 8 4 8 8l0 144c0 33-76 48-152 48z m0-16c88 0 136-19 136-32 0-13-48-32-136-32-88 0-136 19-136 32 0 13 48 32 136 32z m0-160c-88 0-136 19-136 32l0 73c26-17 81-25 136-25 55 0 110 8 136 25l0-73c0-13-48-32-136-32z m176-136c-18 0-32 14-32 32 0 18 14 32 32 32 18 0 32-14 32-32 0-18-14-32-32-32z m0 48c-9 0-16-7-16-16 0-9 7-16 16-16 9 0 16 7 16 16 0 9-7 16-16 16z m0-168c-3 0-6 2-7 4l-58 116c-5 10-7 21-7 32 0 40 32 72 72 72 40 0 72-32 72-72 0-11-2-22-7-32l-58-116c-1-2-4-4-7-4z m0 208c-31 0-56-25-56-56 0-9 2-17 6-25l50-101 50 101c4 8 6 16 6 25 0 31-25 56-56 56z"/>
<glyph unicode="&#57355;" d="M208 464c-76 0-152-15-152-48l0-288c0-33 76-48 152-48 20 0 39 1 57 3 4 0 7 4 7 9-1 4-4 7-9 7-17-2-36-3-55-3-88 0-136 19-136 32l0 73c26-17 81-25 136-25 30 0 58 2 81 6 5 1 8 5 7 10-1 4-5 7-9 6-23-4-50-6-79-6-88 0-136 19-136 32l0 73c26-17 81-25 136-25 55 0 110 8 136 25l0-41c0-4 4-8 8-8 4 0 8 4 8 8l0 160c0 33-76 48-152 48z m0-16c88 0 136-19 136-32 0-13-48-32-136-32-88 0-136 19-136 32 0 13 48 32 136 32z m0-160c-88 0-136 19-136 32l0 73c26-17 81-25 136-25 55 0 110 8 136 25l0-73c0-13-48-32-136-32z m256-128l-16 0 0 16c0 35-29 64-64 64-35 0-64-29-64-64l0-16-16 0c-4 0-8-4-8-8l0-112c0-4 4-8 8-8l160 0c4 0 8 4 8 8l0 112c0 4-4 8-8 8z m-128 16c0 26 22 48 48 48 26 0 48-22 48-48l0-16-96 0z m120-128l-144 0 0 96 144 0z m-56 64c0 9-7 16-16 16-9 0-16-7-16-16 0-6 3-11 8-14l0-26c0-4 4-8 8-8 4 0 8 4 8 8l0 26c5 3 8 8 8 14z"/>
<glyph unicode="&#57356;" d="M360 176c-4 0-8 4-8 8l0 40c0 4 4 8 8 8 4 0 8-4 8-8l0-40c0-4-4-8-8-8z m-144 288c-76 0-152-15-152-48l0-288c0-33 76-48 152-48 37 0 71 3 98 10 4 1 7 5 6 10-1 4-6 6-10 5-25-6-58-9-94-9-88 0-136 19-136 32l0 73c26-17 81-25 136-25 76 0 152 15 152 48l0 192c0 33-76 48-152 48z m136-144c0-13-48-32-136-32-88 0-136 19-136 32l0 73c26-17 81-25 136-25 55 0 110 8 136 25z m-136 128c88 0 136-19 136-32 0-13-48-32-136-32-88 0-136 19-136 32 0 13 48 32 136 32z m0-256c-88 0-136 19-136 32l0 73c26-17 81-25 136-25 55 0 110 8 136 25l0-73c0-13-48-32-136-32z m240-64l-192 0c-4 0-8 4-8 8 0 4 4 8 8 8l192 0c4 0 8-4 8-8 0-4-4-8-8-8z"/>
<glyph unicode="&#57357;" d="M344 200c-4 0-8 4-8 8l0 8c0 4 4 8 8 8 4 0 8-4 8-8l0-8c0-4-4-8-8-8z m-144 264c-76 0-152-15-152-48l0-288c0-33 76-48 152-48 57 0 106 8 132 22 4 2 5 7 3 11-2 4-7 5-11 3-23-12-70-20-124-20-88 0-136 19-136 32l0 73c26-17 81-25 136-25 27 0 51 2 73 5 5 1 8 5 7 9-1 5-5 8-9 7-21-3-45-5-71-5-88 0-136 19-136 32l0 73c26-17 81-25 136-25 55 0 110 8 136 25l0-81c0-4 4-8 8-8 4 0 8 4 8 8l0 200c0 33-76 48-152 48z m0-16c88 0 136-19 136-32 0-13-48-32-136-32-88 0-136 19-136 32 0 13 48 32 136 32z m0-160c-88 0-136 19-136 32l0 73c26-17 81-25 136-25 55 0 110 8 136 25l0-73c0-13-48-32-136-32z m195-176l67 66c3 3 3 9 0 12-3 3-9 3-12 0l-66-67-66 67c-3 3-9 3-12 0-3-3-3-9 0-12l67-66-66-66c-4-3-4-8 0-11 1-2 3-3 5-3 2 0 4 1 6 3l66 66 66-67c2-1 4-2 6-2 2 0 4 1 6 2 3 3 3 9 0 12z"/>
<glyph unicode="&#57358;" d="M232 464c-76 0-152-15-152-48l0-288c0-33 76-48 152-48 37 0 71 3 98 10 4 1 7 5 6 10-1 4-6 6-10 5-25-6-58-9-94-9-88 0-136 19-136 32l0 73c26-17 81-25 136-25 37 0 71 3 98 10 4 1 7 5 6 10-1 4-6 6-10 5-25-6-58-9-94-9-88 0-136 19-136 32l0 73c26-17 81-25 136-25 76 0 152 15 152 48l0 96c0 33-76 48-152 48z m0-16c88 0 136-19 136-32 0-13-48-32-136-32-88 0-136 19-136 32 0 13 48 32 136 32z m0-160c-88 0-136 19-136 32l0 73c26-17 81-25 136-25 55 0 110 8 136 25l0-73c0-13-48-32-136-32z m144-24c-4 0-8 4-8 8l0 48c0 4 4 8 8 8 4 0 8-4 8-8l0-48c0-4-4-8-8-8z m96-120l-88 0 0 88c0 4-4 8-8 8-4 0-8-4-8-8l0-88-88 0c-4 0-8-4-8-8 0-4 4-8 8-8l88 0 0-88c0-4 4-8 8-8 4 0 8 4 8 8l0 88 88 0c4 0 8 4 8 8 0 4-4 8-8 8z"/>
<glyph unicode="&#57359;" d="M200 464c-76 0-152-15-152-48l0-288c0-33 76-48 152-48 17 0 33 1 49 2 4 1 7 4 7 9 0 4-4 7-9 7-15-1-30-2-47-2-88 0-136 19-136 32l0 73c26-17 81-25 136-25 23 0 45 1 65 4 4 0 8 4 7 9-1 4-5 7-9 7-19-3-40-4-63-4-88 0-136 19-136 32l0 73c26-17 81-25 136-25 55 0 110 8 136 25l0-33c0-4 4-8 8-8 4 0 8 4 8 8l0 152c0 33-76 48-152 48z m0-16c88 0 136-19 136-32 0-13-48-32-136-32-88 0-136 19-136 32 0 13 48 32 136 32z m0-160c-88 0-136 19-136 32l0 73c26-17 81-25 136-25 55 0 110 8 136 25l0-73c0-13-48-32-136-32z m168-48c-44 0-80-36-80-80 0-19 7-37 18-51l-64-63c-3-3-3-9 0-12 2-1 4-2 6-2 2 0 4 1 6 2l63 64c14-11 32-18 51-18 44 0 80 36 80 80 0 44-36 80-80 80z m0-144c-35 0-64 29-64 64 0 35 29 64 64 64 35 0 64-29 64-64 0-35-29-64-64-64z"/>
<glyph unicode="&#57360;" d="M208 464c-76 0-152-15-152-48l0-288c0-33 76-48 152-48 14 0 28 0 41 1 4 1 7 5 7 9 0 4-4 8-9 7-12-1-25-1-39-1-88 0-136 19-136 32l0 73c26-17 81-25 136-25 17 0 33 1 49 2 4 1 7 4 7 9 0 4-4 7-9 7-15-1-31-2-47-2-88 0-136 19-136 32l0 73c26-17 81-25 136-25 55 0 110 8 136 25l0-25c0-4 4-8 8-8 4 0 8 4 8 8l0 144c0 33-76 48-152 48z m0-16c88 0 136-19 136-32 0-13-48-32-136-32-88 0-136 19-136 32 0 13 48 32 136 32z m0-160c-88 0-136 19-136 32l0 73c26-17 81-25 136-25 55 0 110 8 136 25l0-73c0-13-48-32-136-32z m168-192c-26 0-48 22-48 48 0 26 22 48 48 48 26 0 48-22 48-48 0-26-22-48-48-48z m0 80c-18 0-32-14-32-32 0-18 14-32 32-32 18 0 32 14 32 32 0 18-14 32-32 32z m8-144l-16 0c-9 0-16 7-16 16l0 11c-7 2-13 5-19 8l-7-6c-6-6-16-6-22 0l-11 11c-7 6-7 16 0 22l6 7c-3 6-6 12-8 19l-11 0c-9 0-16 7-16 16l0 16c0 9 7 16 16 16l11 0c2 7 5 13 8 19l-6 7c-7 6-7 16 0 22l11 11c6 6 16 6 22 0l7-6c6 3 12 6 19 8l0 11c0 9 7 16 16 16l16 0c9 0 16-7 16-16l0-11c7-2 13-5 19-8l7 6c6 6 16 6 22 0l11-11c7-6 7-16 0-22l-6-7c3-6 6-12 8-19l11 0c9 0 16-7 16-16l0-16c0-9-7-16-16-16l-11 0c-2-7-5-13-8-19l6-7c7-6 7-16 0-22l-11-11c-6-6-16-6-22 0l-7 6c-6-3-12-6-19-8l0-11c0-9-7-16-16-16z m-52 53c1 0 3 0 4-1 8-5 16-9 26-11 3 0 6-4 6-7l0-18 16 0 0 18c0 3 3 7 6 7 10 2 18 6 26 11 3 2 7 2 10-1l11-11 11 11-11 11c-3 3-3 7-1 10 5 8 9 16 11 26 0 3 4 6 7 6l18 0 0 16-18 0c-3 0-7 3-7 6-2 9-6 18-11 26-2 3-2 7 1 10l11 11-11 11-11-11c-3-3-7-3-10-1-8 5-16 9-26 11-3 0-6 4-6 7l0 18-16 0 0-18c0-3-3-7-6-7-10-2-18-6-26-11-3-2-7-2-10 1l-11 11-11-11 11-11c3-3 3-7 1-10-5-8-9-16-11-26 0-3-4-6-7-6l-18 0 0-16 18 0c3 0 7-3 7-6 2-9 6-18 11-26 2-3 2-7-1-10l-11-11 11-11 11 11c2 2 4 2 6 2z"/>
<glyph unicode="&#57361;" d="M184 464c-76 0-152-15-152-48l0-288c0-33 76-48 152-48 4 0 8 4 8 8 0 4-4 8-8 8-88 0-136 19-136 32l0 73c26-17 81-25 136-25 55 0 110 8 136 25l0-73c0-4-7-12-27-18-4-2-6-6-5-10 2-4 5-6 8-6 1 0 2 0 3 1 24 8 37 19 37 33l0 288c0 33-76 48-152 48z m136-144c0-13-48-32-136-32-88 0-136 19-136 32l0 73c26-17 81-25 136-25 55 0 110 8 136 25z m-136 128c88 0 136-19 136-32 0-13-48-32-136-32-88 0-136 19-136 32 0 13 48 32 136 32z m0-256c-88 0-136 19-136 32l0 73c26-17 81-25 136-25 55 0 110 8 136 25l0-73c0-13-48-32-136-32z m278 14c-3 3-9 3-12 0l-154-155-74 75c-3 3-9 3-12 0-3-3-3-9 0-12l80-80c2-1 4-2 6-2 2 0 4 1 6 2 0 0 0 0 0 0 0 1 0 1 0 1l160 159c3 3 3 9 0 12z"/>
<glyph unicode="&#57362;" d="M200 464c-76 0-152-15-152-48l0-288c0-33 76-48 152-48 6 0 11 0 16 0 5 0 8 4 8 8 0 5-4 8-8 8-5 0-11 0-16 0-88 0-136 19-136 32l0 78c23-19 69-30 136-30 27 0 51 2 73 5 5 1 8 5 7 9-1 5-5 8-9 7-21-3-45-5-71-5-85 0-136 18-136 48l0 57c26-17 81-25 136-25 55 0 110 8 136 25l0-25c0-4 4-8 8-8 4 0 8 4 8 8l0 144c0 33-76 48-152 48z m0-16c88 0 136-19 136-32 0-13-48-32-136-32-88 0-136 19-136 32 0 13 48 32 136 32z m0-160c-88 0-136 19-136 32l0 73c26-17 81-25 136-25 55 0 110 8 136 25l0-73c0-13-48-32-136-32z m248-256l-176 0c-18 0-32 14-32 32 0 7 3 13 3 14 0 0 1 1 1 1l90 147c6 9 16 14 26 14 10 0 20-5 26-13l90-148c0 0 1-1 1-1 0-1 3-8 3-14 0-18-14-32-32-32z m-190 39c-1-2-2-5-2-7 0-9 7-16 16-16l176 0c9 0 16 7 16 16 0 2-1 5-2 7l-89 147c-3 3-8 6-13 6-5 0-10-3-13-7z m102 41c-4 0-8 4-8 8l0 64c0 4 4 8 8 8 4 0 8-4 8-8l0-64c0-4-4-8-8-8z m0-32c-2 0-4 1-6 2-1 2-2 4-2 6 0 2 1 4 2 6 3 3 9 3 12 0 1-2 2-4 2-6 0-2-1-4-2-6-2-1-4-2-6-2z"/>
<glyph unicode="&#57363;" d="M470 407c0 1 0 1-1 1 0 0 0 0 0 0-6 5-13 8-21 8l-384 0c-8 0-16-3-21-8 0 0-1 0-1-1 0 0 0 0 0 0-6-6-10-14-10-23l0-256c0-18 14-32 32-32l384 0c18 0 32 14 32 32l0 256c0 9-4 18-10 23z m-22-7c1 0 1 0 2 0l-183-184c-6-6-17-6-23 0l-183 184c1 0 2 0 3 0z m-384-288c-1 0-3 0-4 1l114 113c3 3 3 9 0 12-3 3-9 3-12 0l-113-114c-1 1-1 3-1 4l0 256c0 2 0 3 1 5l184-184c6-6 14-9 23-9 8 0 16 3 22 9l185 185c1-2 1-4 1-6l0-256c0-1 0-3-1-4l-113 114c-3 3-9 3-12 0-3-3-3-9 0-12l114-113c-1-1-3-1-4-1z"/>
<glyph unicode="&#57364;" d="M454 471c0 1 0 1-1 1 0 0 0 0 0 0-6 5-13 8-21 8l-352 0c-8 0-16-3-21-8 0 0-1-1-1-1 0 0 0 0 0 0-6-6-10-14-10-23l0-224c0-18 14-32 32-32l352 0c18 0 32 14 32 32l0 224c0 9-4 18-10 23z m-22-7c1 0 1 0 2 0l-167-168c-6-6-17-6-23 0l-167 168c1 0 2 0 3 0z m-352-256c-1 0-3 0-4 1l98 97c3 3 3 9 0 12-3 3-9 3-12 0l-97-98c-1 1-1 3-1 4l0 224c0 2 0 3 1 5l168-168c6-6 14-9 23-9 8 0 16 3 22 9l169 169c1-2 1-4 1-6l0-224c0-1 0-3-1-4l-97 98c-3 3-9 3-12 0-3-3-3-9 0-12l98-97c-1-1-3-1-4-1z m312-96l-253 0 51 50c3 3 3 9 0 12-3 3-9 3-12 0l-64-64c0-1-1-2-1-3-1-2-1-4 0-6 0-1 1-2 1-3l64-64c2-1 4-2 6-2 2 0 4 1 6 2 3 3 3 9 0 12l-51 50 253 0c4 0 8 4 8 8 0 4-4 8-8 8z"/>
<glyph unicode="&#57365;" d="M454 471c0 1 0 1-1 1 0 0 0 0 0 0-6 5-13 8-21 8l-352 0c-8 0-16-3-21-8 0 0-1-1-1-1 0 0 0 0 0 0-6-6-10-14-10-23l0-224c0-18 14-32 32-32l352 0c18 0 32 14 32 32l0 224c0 9-4 18-10 23z m-22-7c1 0 1 0 2 0l-167-168c-6-6-17-6-23 0l-167 168c1 0 2 0 3 0z m-352-256c-1 0-3 0-4 1l98 97c3 3 3 9 0 12-3 3-9 3-12 0l-97-98c-1 1-1 3-1 4l0 224c0 2 0 3 1 5l168-168c6-6 14-9 23-9 8 0 16 3 22 9l169 169c1-2 1-4 1-6l0-224c0-1 0-3-1-4l-97 98c-3 3-9 3-12 0-3-3-3-9 0-12l98-97c-1-1-3-1-4-1z m319-107c1 2 1 4 0 6 0 1-1 2-1 3l-64 64c-3 3-9 3-12 0-3-3-3-9 0-12l51-50-253 0c-4 0-8-4-8-8 0-4 4-8 8-8l253 0-51-50c-3-3-3-9 0-12 2-1 4-2 6-2 2 0 4 1 6 2l64 64c0 1 1 2 1 3z"/>
<glyph unicode="&#57366;" d="M62 342c-2 0-3 0-4 1-4 2-6 7-4 11 38 77 114 125 199 126l3 0c4 0 8-4 8-8 0-4-4-8-8-8l-2 0c-80-1-151-46-185-117-2-3-5-5-7-5z m-11-164c-3 0-6 3-7 6-8 23-12 47-12 72 0 22 3 44 9 65 2 4 6 6 10 5 5-1 7-6 6-10-6-19-9-40-9-60 0-23 4-45 11-67 1-4-1-9-5-10-1 0-2-1-3-1z m421 75c-4 0-8 4-8 8-2 101-77 186-177 201-4 0-7 4-6 9 0 4 4 7 9 6 107-16 187-107 190-216 0-4-3-8-8-8 0 0 0 0 0 0z m-241-221c-1 0-2 0-3 1-4 2-6 7-4 11 4 9 9 19 13 32 2 4 6 6 10 5 5-2 7-7 5-11-4-13-9-24-14-33-1-3-4-5-7-5z m24 66c-1 0-2 0-2 0-5 1-7 6-6 10 6 25 9 50 9 76 0 24-3 48-8 72-1 4 2 8 6 9 4 1 9-1 10-6 5-24 8-50 8-75 0-27-3-54-10-80 0-4-4-6-7-6z m57-60c-1 0-2 1-3 1-4 1-6 6-5 10 16 43 24 89 24 135 0 29-3 58-10 86-6 29-32 50-62 50-8 0-16-1-23-4-4-2-9 0-11 4-1 4 1 9 5 11 9 3 19 5 29 5 37 0 70-26 78-63 7-29 10-59 10-89 0-48-8-95-25-140-1-4-4-6-7-6z m87 47c0 0-1 0-1 0-5 1-7 5-7 10 6 29 9 59 9 89 0 34-4 68-11 101-9 39-34 72-68 91-4 2-6 7-4 11 2 3 7 5 11 3 39-21 67-58 76-101 8-34 12-70 12-105 0-31-3-62-9-93-1-3-4-6-8-6z m-238-31c-1 0-2 0-4 1-4 2-5 7-3 11 20 36 30 77 30 118 0 18-2 36-6 53 0 1 0 1 0 1-1 6-2 12-2 18 0 20 7 39 21 54 3 3 8 3 11 0 3-3 4-8 1-11-11-12-17-27-17-43 0-4 0-9 1-13 0-1 1-1 1-1 4-19 6-39 6-58 0-44-11-87-32-126-1-3-4-4-7-4z m-59 42c-1 0-3 0-4 1-4 2-5 7-3 11 11 24 17 49 17 76 0 13-1 26-4 39-3 11-4 22-4 33 0 84 68 152 152 152 13 0 27-2 39-5 5-1 7-6 6-10-1-4-6-7-10-6-11 3-23 5-35 5-75 0-136-61-136-136 0-10 1-20 3-30 3-14 5-28 5-42 0-29-6-57-19-83-1-3-4-5-7-5z"/>
<glyph unicode="&#57367;" d="M248 272c-13 0-24 11-24 24 0 13 11 24 24 24 13 0 24-11 24-24 0-13-11-24-24-24z m0 32c-4 0-8-4-8-8 0-4 4-8 8-8 4 0 8 4 8 8 0 4-4 8-8 8z m0-256c-4 0-8 4-8 8l0 176c0 4 4 8 8 8 4 0 8-4 8-8l0-176c0-4-4-8-8-8z m57 183c-2 0-5 1-6 3-3 3-3 8 0 11 14 14 21 32 21 51 0 19-8 37-21 51-3 3-3 8 0 11 3 3 8 3 11 0 17-16 26-38 26-62 0-24-9-46-26-62-1-2-3-3-5-3z m-113 0c-2 0-4 0-5 2-18 17-27 39-27 63 0 24 9 46 26 62 3 3 8 3 11 0 3-3 3-8 0-11-14-14-21-32-21-51 0-20 8-38 22-52 3-3 3-8 0-11-2-1-4-2-6-2z m158-45c-2 0-4 1-6 3-3 3-3 8 0 11 26 26 40 60 40 96 0 36-14 70-40 96-3 3-3 8 0 11 3 4 8 4 11 0 29-28 45-66 45-107 0-41-16-79-45-107-1-2-3-3-5-3z m-203-1c-2 0-4 1-6 3-29 29-45 67-45 108 0 41 16 79 45 107 3 4 8 4 11 0 3-3 3-8 0-11-26-26-40-60-40-96 0-37 14-71 41-97 3-3 3-8 0-11-2-2-4-3-6-3z m-45-41c-2 0-4 1-6 2-42 42-64 94-64 150 0 57 22 108 63 150 3 3 8 3 12 0 3-3 3-9 0-12-39-38-59-86-59-138 0-52 21-100 59-138 3-3 3-8 0-12-1-1-3-2-5-2z m293 0c-2 0-4 1-6 2-3 3-3 9 0 12 39 38 59 86 59 138 0 52-20 100-59 138-3 3-3 9 0 12 4 3 9 3 12 0 41-42 63-93 63-150 0-57-22-108-63-150-2-1-4-2-6-2z"/>
<glyph unicode="&#57368;" d="M408 160c-6 0-12-1-17-3l-112 189c15 10 25 27 25 46 0 31-25 56-56 56-31 0-56-25-56-56 0-19 10-36 25-46l-112-189c-5 2-11 3-17 3-31 0-56-25-56-56 0-31 25-56 56-56 28 0 51 21 55 48l210 0c4-27 27-48 55-48 31 0 56 25 56 56 0 31-25 56-56 56z m-200 232c0 22 18 40 40 40 22 0 40-18 40-40 0-22-18-40-40-40-22 0-40 18-40 40z m23-53c5-2 11-3 17-3 6 0 12 1 17 3l112-189c-13-8-22-22-24-38l-210 0c-2 16-11 30-24 38z m-143-275c-22 0-40 18-40 40 0 22 18 40 40 40 22 0 40-18 40-40 0-22-18-40-40-40z m320 0c-22 0-40 18-40 40 0 22 18 40 40 40 22 0 40-18 40-40 0-22-18-40-40-40z"/>
<glyph unicode="&#57369;" d="M408 448c-28 0-51-21-55-48l-81 0c-18 0-32-14-32-32l0-65c-27-4-48-27-48-55 0-28 21-51 48-55l0-65c0-9-7-16-16-16l-81 0c-4 27-27 48-55 48-31 0-56-25-56-56 0-31 25-56 56-56 28 0 51 21 55 48l81 0c18 0 32 14 32 32l0 65c27 4 48 27 48 55 0 28-21 51-48 55l0 65c0 9 7 16 16 16l81 0c4-27 27-48 55-48 31 0 56 25 56 56 0 31-25 56-56 56z m-320-384c-22 0-40 18-40 40 0 22 18 40 40 40 22 0 40-18 40-40 0-22-18-40-40-40z m200 184c0-22-18-40-40-40-22 0-40 18-40 40 0 22 18 40 40 40 22 0 40-18 40-40z m120 104c-22 0-40 18-40 40 0 22 18 40 40 40 22 0 40-18 40-40 0-22-18-40-40-40z"/>
<glyph unicode="&#57370;" d="M408 448c-28 0-51-21-55-48l-81 0c-18 0-32-14-32-32l0-224c0-9-7-16-16-16l-81 0c-4 27-27 48-55 48-31 0-56-25-56-56 0-31 25-56 56-56 28 0 51 21 55 48l81 0c18 0 32 14 32 32l0 224c0 9 7 16 16 16l81 0c4-27 27-48 55-48 31 0 56 25 56 56 0 31-25 56-56 56z m-320-368c-22 0-40 18-40 40 0 22 18 40 40 40 22 0 40-18 40-40 0-22-18-40-40-40z m320 272c-22 0-40 18-40 40 0 22 18 40 40 40 22 0 40-18 40-40 0-22-18-40-40-40z"/>
<glyph unicode="&#57371;" d="M424 448c-31 0-56-25-56-56 0-18 9-35 23-45l-60-110c-6 2-12 3-19 3-10 0-20-3-28-7l-44 56c10 10 16 24 16 39 0 31-25 56-56 56-31 0-56-25-56-56 0-18 9-35 23-45l-60-110c-6 2-12 3-19 3-31 0-56-25-56-56 0-31 25-56 56-56 31 0 56 25 56 56 0 18-9 35-23 45l60 110c6-2 12-3 19-3 10 0 20 3 28 7l44-56c-10-10-16-24-16-39 0-31 25-56 56-56 31 0 56 25 56 56 0 18-9 35-23 45l60 110c6-2 12-3 19-3 31 0 56 25 56 56 0 31-25 56-56 56z m-296-328c0-22-18-40-40-40-22 0-40 18-40 40 0 22 18 40 40 40 22 0 40-18 40-40z m32 208c0 22 18 40 40 40 22 0 40-18 40-40 0-22-18-40-40-40-22 0-40 18-40 40z m192-144c0-22-18-40-40-40-22 0-40 18-40 40 0 22 18 40 40 40 22 0 40-18 40-40z m72 168c-22 0-40 18-40 40 0 22 18 40 40 40 22 0 40-18 40-40 0-22-18-40-40-40z"/>
<glyph unicode="&#57372;" d="M416 159l0 65c0 18-14 32-32 32l-128 0 0 81c27 4 48 27 48 55 0 31-25 56-56 56-31 0-56-25-56-56 0-28 21-51 48-55l0-81-128 0c-18 0-32-14-32-32l0-65c-27-4-48-27-48-55 0-31 25-56 56-56 31 0 56 25 56 56 0 28-21 51-48 55l0 65c0 9 7 16 16 16l272 0c9 0 16-7 16-16l0-65c-27-4-48-27-48-55 0-31 25-56 56-56 31 0 56 25 56 56 0 28-21 51-48 55z m-208 233c0 22 18 40 40 40 22 0 40-18 40-40 0-22-18-40-40-40-22 0-40 18-40 40z m-80-288c0-22-18-40-40-40-22 0-40 18-40 40 0 22 18 40 40 40 22 0 40-18 40-40z m280-40c-22 0-40 18-40 40 0 22 18 40 40 40 22 0 40-18 40-40 0-22-18-40-40-40z"/>
<glyph unicode="&#57373;" d="M248 304c-4 0-8 4-8 8l0 160c0 4 4 8 8 8 4 0 8-4 8-8l0-160c0-4-4-8-8-8z m0-272c-101 0-184 83-184 184 0 82 55 155 134 177 4 1 9-1 10-6 1-4-2-8-6-9-72-21-122-87-122-162 0-93 75-168 168-168 93 0 168 75 168 168 0 75-50 141-122 162-4 1-7 5-6 9 2 5 6 7 10 6 79-22 134-95 134-177 0-101-83-184-184-184z"/>
<glyph unicode="&#57374;" d="M432 48l-352 0c-18 0-32 14-32 32l0 352c0 18 14 32 32 32l352 0c18 0 32-14 32-32l0-352c0-18-14-32-32-32z m-352 400c-9 0-16-7-16-16l0-352c0-9 7-16 16-16l352 0c9 0 16 7 16 16l0 352c0 9-7 16-16 16z m64-336c-18 0-32 14-32 32 0 18 14 32 32 32 18 0 32-14 32-32 0-18-14-32-32-32z m0 48c-9 0-16-7-16-16 0-9 7-16 16-16 9 0 16 7 16 16 0 9-7 16-16 16z m136-48c-4 0-8 4-8 8 0 84-68 152-152 152-4 0-8 4-8 8 0 4 4 8 8 8 93 0 168-75 168-168 0-4-4-8-8-8z m112 0c-4 0-8 4-8 8 0 146-118 264-264 264-4 0-8 4-8 8 0 4 4 8 8 8 154 0 280-126 280-280 0-4-4-8-8-8z"/>
<glyph unicode="&#57375;" d="M480 115c0 9-3 17-9 23l-72 72c-12 12-33 12-45 0l-39-39c-2-2-6-3-11-3-20 0-56 15-89 47-19 19-34 42-42 63-7 20-6 33-2 37l39 39c6 6 9 14 9 22 0 9-3 17-9 23l-72 72c-12 12-33 12-45 0l-42-42c-48-48-3-169 103-275 74-74 161-122 222-122 22 0 40 7 53 19l42 42c6 6 9 14 9 22z m-376 344c3 3 7 5 11 5 4 0 8-2 11-5l72-72c3-3 5-7 5-11 0-4-2-8-5-11l-16-16-94 94z m314-396c-10-10-24-15-42-15-57 0-139 46-211 117-96 97-143 212-102 253l13 14 95-95-11-11c-10-10-11-29-2-53 9-24 25-48 46-69 31-31 71-52 100-52 9 0 17 2 22 8l11 11 95-95z m41 41l-16-16-94 94 16 16c6 6 16 6 22 0l72-72c7-6 7-16 0-22z"/>
<glyph unicode="&#57376;" d="M138 336l42 0c16 0 28 12 28 28l0 88c0 16-12 28-28 28l-45 0c-57 0-103-104-103-232 0-128 46-232 103-232l45 0c16 0 28 12 28 28l0 88c0 16-12 28-28 28l-42 0c-10 0-31 38-31 88 0 50 21 88 31 88z m54 116l0-88c0-7-5-12-12-12l-20 0 0 112 20 0c7 0 12-5 12-12z m0-320l0-88c0-7-5-12-12-12l-20 0 0 112 20 0c7 0 12-5 12-12z m-101 116c0-49 20-104 47-104l6 0 0-112-9 0c-46 0-87 101-87 216 0 115 41 216 87 216l9 0 0-112-6 0c-27 0-47-55-47-104z m381 8l-237 0 51 50c3 3 3 9 0 12-3 3-9 3-12 0l-64-64c0-1-1-2-1-3-1-2-1-4 0-6 0-1 1-2 1-3l64-64c2-1 4-2 6-2 2 0 4 1 6 2 3 3 3 9 0 12l-51 50 237 0c4 0 8 4 8 8 0 4-4 8-8 8z"/>
<glyph unicode="&#57377;" d="M138 336l42 0c16 0 28 12 28 28l0 88c0 16-12 28-28 28l-45 0c-57 0-103-104-103-232 0-128 46-232 103-232l17 0c0 0 0 0 0 0 0 0 0 0 0 0l28 0c16 0 28 12 28 28l0 88c0 16-12 28-28 28l-42 0c-10 0-31 38-31 88 0 50 21 88 31 88z m54 116l0-88c0-7-5-12-12-12l-20 0 0 112 20 0c7 0 12-5 12-12z m0-320l0-88c0-7-5-12-12-12l-20 0 0 112 20 0c7 0 12-5 12-12z m-101 116c0-49 20-104 47-104l6 0 0-112-9 0c-46 0-87 101-87 216 0 115 41 216 87 216l9 0 0-112-6 0c-27 0-47-55-47-104z m388-3c1 2 1 4 0 6 0 1-1 2-1 3l-64 64c-3 3-9 3-12 0-3-3-3-9 0-12l51-50-237 0c-4 0-8-4-8-8 0-4 4-8 8-8l237 0-51-50c-3-3-3-9 0-12 2-1 4-2 6-2 2 0 4 1 6 2l64 64c0 1 1 2 1 3z"/>
<glyph unicode="&#57378;" d="M464 99c0 9-3 17-9 23l-72 72c-12 12-33 12-45 0l-39-39c-2-2-6-3-11-3-20 0-56 15-89 47-19 19-34 42-42 63-7 20-6 33-2 37l39 39c6 6 9 14 9 22 0 9-3 17-9 23l-72 72c-12 12-33 12-45 0l-22-22c0 0 0 0 0 0 0 0 0 0 0 0l-20-20c-48-48-3-169 103-275 74-74 161-122 222-122 0 0 0 0 0 0 22 0 40 7 53 19l20 20c0 0 0 0 0 0 0 0 0 0 0 0l22 22c6 6 9 14 9 22z m-376 344c3 3 7 5 11 5 4 0 8-2 11-5l72-72c3-3 5-7 5-11 0-4-2-8-5-11l-16-16-94 94z m314-396c-10-10-24-15-42-15 0 0 0 0 0 0-57 0-139 46-211 117-96 97-143 212-102 253l13 14 95-95-11-11c-10-10-11-29-2-53 9-24 25-48 46-69 31-31 71-52 99-52 10 0 18 2 23 8l11 11 95-95z m41 41l-16-16-94 94 16 16c6 6 16 6 22 0l72-72c7-6 7-16 0-22z m-99 168c-4 0-8 4-8 8 0 19-7 37-21 51-14 14-32 21-51 21-4 0-8 4-8 8 0 4 4 8 8 8 24 0 46-9 62-26 17-16 26-39 26-62 0-4-4-8-8-8z m64 0c-4 0-8 4-8 8 0 36-14 70-40 96-26 26-60 40-96 40-4 0-8 4-8 8 0 4 4 8 8 8 41 0 79-16 107-45 29-28 45-66 45-107 0-4-4-8-8-8z m64 0c-4 0-8 4-8 8 0 53-21 104-59 141-37 38-88 59-141 59-4 0-8 4-8 8 0 4 4 8 8 8 58 0 112-22 153-63 41-41 63-95 63-153 0-4-4-8-8-8z"/>
<glyph unicode="&#57379;" d="M448 432l-384 0c-18 0-32-14-32-32l0-304c0-18 14-32 32-32l384 0c18 0 32 14 32 32l0 304c0 18-14 32-32 32z m-384-16l384 0c9 0 16-7 16-16l0-48-416 0 0 48c0 9 7 16 16 16z m384-336l-384 0c-9 0-16 7-16 16l0 240 416 0 0-240c0-9-7-16-16-16z m-32 320c9 0 16-7 16-16 0-9-7-16-16-16-9 0-16 7-16 16 0 9 7 16 16 16z m-48 0c9 0 16-7 16-16 0-9-7-16-16-16-9 0-16 7-16 16 0 9 7 16 16 16z m-48 0c9 0 16-7 16-16 0-9-7-16-16-16-9 0-16 7-16 16 0 9 7 16 16 16z m-62-288c-60 0-97 50-97 96 0 46 37 96 97 96 57 0 95-31 95-78 0-19-9-38-23-51-12-12-26-18-37-17-9 0-14 5-16 8-7 10-1 25 0 27l22 62c1 4 6 6 10 5 4-2 6-7 5-11l-22-61c-2-5-3-11-2-13 1-1 2-1 3-1 6-1 16 3 26 12 11 11 18 25 18 40 0 38-31 62-79 62-50 0-81-42-81-80 0-38 31-80 81-80 48 0 72 31 73 32 3 4 8 4 11 2 4-3 4-8 2-12-1-1-30-38-86-38z m-18 39c-18 0-39 11-39 40 0 45 34 69 65 69 14 0 25-5 31-14 7-9 8-21 4-33-2-4-6-6-10-5-5 2-7 6-5 10 2 7 2 14-2 19-3 4-9 7-18 7-19 0-49-15-49-53 0-21 14-24 23-24 17 0 32 13 37 26 1 4 6 6 10 5 4-2 6-6 5-11-7-18-27-36-52-36z"/>
<glyph unicode="&#57380;" d="M448 432l-384 0c-18 0-32-14-32-32l0-304c0-18 14-32 32-32l384 0c18 0 32 14 32 32l0 304c0 18-14 32-32 32z m-384-16l384 0c9 0 16-7 16-16l0-48-416 0 0 48c0 9 7 16 16 16z m384-336l-384 0c-9 0-16 7-16 16l0 240 416 0 0-240c0-9-7-16-16-16z m-32 320c9 0 16-7 16-16 0-9-7-16-16-16-9 0-16 7-16 16 0 9 7 16 16 16z m-48 0c9 0 16-7 16-16 0-9-7-16-16-16-9 0-16 7-16 16 0 9 7 16 16 16z m-48 0c9 0 16-7 16-16 0-9-7-16-16-16-9 0-16 7-16 16 0 9 7 16 16 16z"/>
<glyph unicode="&#57381;" d="M416 400c9 0 16-7 16-16 0-9-7-16-16-16-9 0-16 7-16 16 0 9 7 16 16 16z m-48 0c9 0 16-7 16-16 0-9-7-16-16-16-9 0-16 7-16 16 0 9 7 16 16 16z m-48 0c9 0 16-7 16-16 0-9-7-16-16-16-9 0-16 7-16 16 0 9 7 16 16 16z m128 32l-384 0c-18 0-32-14-32-32l0-304c0-18 14-32 32-32l384 0c18 0 32 14 32 32l0 304c0 18-14 32-32 32z m-384-16l384 0c9 0 16-7 16-16l0-48-416 0 0 48c0 9 7 16 16 16z m-16-320l0 240 144 0 0-256-128 0c-9 0-16 7-16 16z m400-16l-240 0 0 256 256 0 0-240c0-9-7-16-16-16z"/>
<glyph unicode="&#57382;" d="M416 400c9 0 16-7 16-16 0-9-7-16-16-16-9 0-16 7-16 16 0 9 7 16 16 16z m-48 0c9 0 16-7 16-16 0-9-7-16-16-16-9 0-16 7-16 16 0 9 7 16 16 16z m-48 0c9 0 16-7 16-16 0-9-7-16-16-16-9 0-16 7-16 16 0 9 7 16 16 16z m128 32l-384 0c-18 0-32-14-32-32l0-304c0-18 14-32 32-32l384 0c18 0 32 14 32 32l0 304c0 18-14 32-32 32z m-240-96l256 0 0-112-256 0z m-144 80l384 0c9 0 16-7 16-16l0-48-416 0 0 48c0 9 7 16 16 16z m-16-320l0 240 144 0 0-256-128 0c-9 0-16 7-16 16z m400-16l-240 0 0 128 256 0 0-112c0-9-7-16-16-16z"/>
<glyph unicode="&#57383;" d="M448 432l-384 0c-18 0-32-14-32-32l0-304c0-18 14-32 32-32l384 0c18 0 32 14 32 32l0 304c0 18-14 32-32 32z m-384-16l384 0c9 0 16-7 16-16l0-48-416 0 0 48c0 9 7 16 16 16z m384-336l-384 0c-9 0-16 7-16 16l0 240 416 0 0-240c0-9-7-16-16-16z m-32 320c9 0 16-7 16-16 0-9-7-16-16-16-9 0-16 7-16 16 0 9 7 16 16 16z m-48 0c9 0 16-7 16-16 0-9-7-16-16-16-9 0-16 7-16 16 0 9 7 16 16 16z m-48 0c9 0 16-7 16-16 0-9-7-16-16-16-9 0-16 7-16 16 0 9 7 16 16 16z m-120-240c-2 0-4 1-5 2l-48 40c-2 1-3 4-3 6 0 2 1 5 3 6l48 40c3 3 8 3 11-1 3-3 3-8-1-11l-41-34 41-34c4-3 4-8 1-11-1-2-4-3-6-3z m112 0c-2 0-5 1-6 3-3 3-3 8 1 11l41 34-41 34c-4 3-4 8-1 11 3 4 8 4 11 1l48-40c2-1 3-4 3-6 0-2-1-5-3-6l-48-40c-1-1-3-2-5-2z m-80-32c-1 0-2 0-3 0-4 2-6 6-5 11l48 144c2 4 6 6 11 5 4-2 6-6 5-11l-48-144c-2-3-5-5-8-5z"/>
<glyph unicode="&#57384;" d="M352 464l-288 0c-18 0-32-14-32-32l0-224c0-18 14-32 32-32l40 0c4 0 8 4 8 8 0 4-4 8-8 8l-40 0c-9 0-16 7-16 16l0 160 320 0 0-8c0-4 4-8 8-8 4 0 8 4 8 8l0 72c0 18-14 32-32 32z m-304-80l0 48c0 9 7 16 16 16l288 0c9 0 16-7 16-16l0-48z m272 48c9 0 16-7 16-16 0-9-7-16-16-16-9 0-16 7-16 16 0 9 7 16 16 16z m-48 0c9 0 16-7 16-16 0-9-7-16-16-16-9 0-16 7-16 16 0 9 7 16 16 16z m-48 0c9 0 16-7 16-16 0-9-7-16-16-16-9 0-16 7-16 16 0 9 7 16 16 16z m224-96l-288 0c-18 0-32-14-32-32l0-224c0-18 14-32 32-32l288 0c18 0 32 14 32 32l0 224c0 18-14 32-32 32z m-288-16l288 0c9 0 16-7 16-16l0-48-320 0 0 48c0 9 7 16 16 16z m288-256l-288 0c-9 0-16 7-16 16l0 160 320 0 0-160c0-9-7-16-16-16z m-32 240c9 0 16-7 16-16 0-9-7-16-16-16-9 0-16 7-16 16 0 9 7 16 16 16z m-48 0c9 0 16-7 16-16 0-9-7-16-16-16-9 0-16 7-16 16 0 9 7 16 16 16z m-48 0c9 0 16-7 16-16 0-9-7-16-16-16-9 0-16 7-16 16 0 9 7 16 16 16z"/>
<glyph unicode="&#57385;" d="M208 448l-160 0c-18 0-32-14-32-32l0-320c0-18 14-32 32-32l160 0c18 0 32 14 32 32l0 320c0 18-14 32-32 32z m-160-16l160 0c9 0 16-7 16-16l0-48-192 0 0 48c0 9 7 16 16 16z m160-352l-160 0c-9 0-16 7-16 16l0 256 192 0 0-256c0-9-7-16-16-16z m-32 336c9 0 16-7 16-16 0-9-7-16-16-16-9 0-16 7-16 16 0 9 7 16 16 16z m-48 0c9 0 16-7 16-16 0-9-7-16-16-16-9 0-16 7-16 16 0 9 7 16 16 16z m-48 0c9 0 16-7 16-16 0-9-7-16-16-16-9 0-16 7-16 16 0 9 7 16 16 16z m368 32l-160 0c-18 0-32-14-32-32l0-320c0-18 14-32 32-32l160 0c18 0 32 14 32 32l0 320c0 18-14 32-32 32z m-160-16l160 0c9 0 16-7 16-16l0-48-192 0 0 48c0 9 7 16 16 16z m160-352l-160 0c-9 0-16 7-16 16l0 256 192 0 0-256c0-9-7-16-16-16z m-32 336c9 0 16-7 16-16 0-9-7-16-16-16-9 0-16 7-16 16 0 9 7 16 16 16z m-48 0c9 0 16-7 16-16 0-9-7-16-16-16-9 0-16 7-16 16 0 9 7 16 16 16z m-48 0c9 0 16-7 16-16 0-9-7-16-16-16-9 0-16 7-16 16 0 9 7 16 16 16z"/>
<glyph unicode="&#57386;" d="M432 432l-368 0c-18 0-32-14-32-32l0-304c0-18 14-32 32-32l368 0c18 0 32 14 32 32l0 304c0 18-14 32-32 32z m-368-16l368 0c9 0 16-7 16-16l0-48-400 0 0 48c0 9 7 16 16 16z m368-336l-368 0c-9 0-16 7-16 16l0 240 400 0 0-240c0-9-7-16-16-16z m-32 320c9 0 16-7 16-16 0-9-7-16-16-16-9 0-16 7-16 16 0 9 7 16 16 16z m-48 0c9 0 16-7 16-16 0-9-7-16-16-16-9 0-16 7-16 16 0 9 7 16 16 16z m-48 0c9 0 16-7 16-16 0-9-7-16-16-16-9 0-16 7-16 16 0 9 7 16 16 16z m-167-225c-4 0-7 2-8 6l-17 48c-1 4 1 8 5 10 5 1 9-1 11-5l8-25 8 25c1 4 4 6 8 6 4 0 7-2 8-6l8-25 8 25c2 4 6 6 11 5 4-1 6-6 5-10l-16-48c-1-3-5-6-8-6 0 0 0 0 0 0-3 0-7 3-8 6l-8 25-8-25c-1-3-4-6-7-6 0 0 0 0 0 0z m96 0c-4 0-7 2-8 6l-17 48c-1 4 1 8 5 10 5 1 9-1 11-5l8-25 8 25c1 4 4 6 8 6 0 0 0 0 0 0 3 0 7-2 8-6l8-25 8 25c2 4 6 6 11 5 4-1 6-6 5-10l-16-48c-1-3-5-6-8-6 0 0 0 0 0 0-3 0-7 3-8 6l-8 25-8-25c-1-3-4-6-7-6 0 0 0 0 0 0z m96 0c-4 0-7 2-8 6l-17 48c-1 4 1 8 5 10 5 1 9-1 11-5l8-25 8 25c1 4 4 6 8 6 0 0 0 0 0 0 3 0 7-2 8-6l8-25 8 25c2 4 6 6 11 5 4-1 6-6 5-10l-16-48c-1-3-5-6-8-6 0 0 0 0 0 0-3 0-7 3-8 6l-8 25-8-25c-1-3-4-6-7-6 0 0 0 0 0 0z"/>
</font>
</defs>
</svg>
