<?xml version="1.0" encoding="utf-8"?>
<!-- Generator: Adobe Illustrator 18.0.0, SVG Export Plug-In . SVG Version: 6.00 Build 0)  -->
<!DOCTYPE svg PUBLIC "-//W3C//DTD SVG 1.1//EN" "http://www.w3.org/Graphics/SVG/1.1/DTD/svg11.dtd">
<svg version="1.1" id="Layer_1" xmlns="http://www.w3.org/2000/svg" xmlns:xlink="http://www.w3.org/1999/xlink" x="0px" y="0px"
	 width="202.1px" height="56.4px" viewBox="0 0 202.1 56.4" enable-background="new 0 0 202.1 56.4" xml:space="preserve">
<g id="Layer_1_1_">
	<g enable-background="new    ">
		<path fill="#FFFFFF" d="M47.3,40.8V10.8l4.5-0.8v30c0,0.7,0.1,1.3,0.2,1.8s0.3,0.9,0.6,1.1s0.7,0.5,1.1,0.7s1.1,0.3,1.8,0.4
			l-0.6,3.8c-2.8-0.1-4.7-0.7-5.8-1.8C47.9,44.9,47.3,43.1,47.3,40.8z"/>
		<path fill="#FFFFFF" d="M60.4,40.8V10.8l4.5-0.8v30c0,0.7,0.1,1.3,0.2,1.8s0.3,0.9,0.6,1.1s0.7,0.5,1.1,0.7s1.1,0.3,1.8,0.4
			L68,47.8c-2.8-0.1-4.7-0.7-5.8-1.8C61,44.9,60.4,43.1,60.4,40.8z"/>
		<path fill="#FFFFFF" d="M73,14.9c0-0.9,0.3-1.6,0.8-2.1s1.2-0.8,2-0.8s1.5,0.3,2,0.8s0.8,1.2,0.8,2.1c0,0.9-0.3,1.6-0.8,2.1
			s-1.2,0.8-2,0.8s-1.5-0.3-2-0.8S73,15.8,73,14.9z M73.6,47.3v-25h4.5v25H73.6z"/>
		<path fill="#FFFFFF" d="M85.8,56.2V23.1c1.1-0.2,2.4-0.5,4-0.8c1.6-0.3,3.4-0.5,5.5-0.5c1.9,0,3.7,0.3,5.2,0.9
			c1.5,0.6,2.9,1.5,3.9,2.6s1.9,2.5,2.5,4.1c0.6,1.6,0.9,3.4,0.9,5.4c0,1.9-0.2,3.6-0.8,5.2c-0.5,1.6-1.2,3-2.2,4.1
			c-1,1.2-2.1,2.1-3.5,2.7c-1.4,0.6-3,1-4.8,1c-1.4,0-2.7-0.2-3.8-0.6s-1.9-0.8-2.5-1.1v10H85.8z M90.2,42c0.5,0.5,1.3,0.9,2.4,1.3
			s2.1,0.6,3.4,0.6c1.3,0,2.4-0.2,3.3-0.7c0.9-0.5,1.7-1.1,2.2-1.9c0.6-0.8,1-1.8,1.2-2.9c0.3-1.1,0.4-2.3,0.4-3.6
			c0-2.9-0.7-5.2-2.2-6.7c-1.4-1.6-3.4-2.4-5.8-2.4c-1.3,0-2.4,0.1-3.1,0.2c-0.8,0.1-1.4,0.2-1.8,0.3V42z"/>
		<path fill="#FFFFFF" d="M113.8,37.7V15.4l4.5-0.8v7.7h9.4v3.8h-9.4v11.5c0,1.2,0.1,2.3,0.3,3.1s0.5,1.5,0.9,1.9s0.9,0.8,1.4,1
			s1.2,0.3,2,0.3c1.3,0,2.4-0.2,3.2-0.5s1.4-0.5,1.7-0.7l0.8,3.7c-0.5,0.2-1.2,0.5-2.4,0.8s-2.4,0.5-3.8,0.5c-1.7,0-3.1-0.2-4.2-0.7
			s-2-1.1-2.7-1.9s-1.1-1.9-1.4-3.2S113.8,39.3,113.8,37.7z"/>
		<path fill="#FFFFFF" d="M132.6,14.9c0-0.9,0.3-1.6,0.8-2.1s1.2-0.8,2-0.8s1.5,0.3,2,0.8s0.8,1.2,0.8,2.1c0,0.9-0.3,1.6-0.8,2.1
			s-1.2,0.8-2,0.8s-1.5-0.3-2-0.8S132.6,15.8,132.6,14.9z M133.3,47.3v-25h4.5v25H133.3z"/>
		<path fill="#FFFFFF" d="M144.1,34.9c0-1.9,0.3-3.7,0.8-5.3c0.6-1.6,1.4-3,2.4-4.2s2.3-2.1,3.8-2.7s3.1-1,5-1
			c1.1,0,2.2,0.1,3.4,0.3s2.2,0.5,3.2,0.9l-1,3.8c-0.7-0.3-1.4-0.6-2.3-0.8s-1.8-0.3-2.8-0.3c-2.5,0-4.4,0.8-5.7,2.4
			c-1.3,1.6-2,3.9-2,6.9c0,1.3,0.2,2.6,0.5,3.7s0.8,2.1,1.4,2.9s1.5,1.4,2.5,1.9s2.3,0.7,3.7,0.7c1.2,0,2.3-0.1,3.2-0.3
			s1.7-0.5,2.3-0.7l0.6,3.7c-0.2,0.2-0.6,0.3-1.1,0.5s-1,0.3-1.6,0.4s-1.3,0.2-1.9,0.3s-1.4,0.1-2,0.1c-2,0-3.8-0.3-5.3-1
			s-2.8-1.5-3.8-2.7s-1.8-2.5-2.3-4.1S144.1,36.8,144.1,34.9z"/>
		<path fill="#FFFFFF" d="M166,39.9c0-1.4,0.3-2.6,0.8-3.6c0.6-1,1.3-1.8,2.3-2.4s2.1-1.1,3.4-1.4c1.3-0.3,2.6-0.4,4.1-0.4
			c0.5,0,0.9,0,1.4,0.1c0.5,0,0.9,0.1,1.4,0.2s0.8,0.2,1.1,0.2c0.3,0.1,0.5,0.1,0.7,0.1v-1.2c0-0.7-0.1-1.5-0.2-2.2
			c-0.2-0.7-0.4-1.4-0.9-1.9c-0.4-0.6-1-1-1.7-1.3c-0.7-0.3-1.6-0.5-2.8-0.5c-1.5,0-2.8,0.1-3.9,0.3c-1.1,0.2-1.9,0.4-2.5,0.6
			l-0.5-3.7c0.6-0.2,1.5-0.5,2.9-0.8c1.3-0.2,2.8-0.4,4.4-0.4c1.8,0,3.3,0.2,4.6,0.7c1.2,0.5,2.2,1.1,3,2s1.3,1.9,1.6,3
			s0.5,2.5,0.5,3.9v15.6c-0.4,0.1-0.9,0.1-1.6,0.3s-1.5,0.2-2.3,0.3s-1.8,0.2-2.8,0.3s-2,0.1-3,0.1c-1.4,0-2.7-0.1-3.9-0.4
			c-1.2-0.3-2.2-0.7-3.1-1.4s-1.5-1.4-2-2.5S166,41.3,166,39.9z M170.6,39.8c0,1.6,0.5,2.7,1.5,3.3c1,0.6,2.4,0.9,4.2,0.9
			c1.1,0,2,0,2.8-0.1c0.8,0,1.5-0.1,2-0.3v-7.4c-0.3-0.2-0.8-0.3-1.6-0.4c-0.7-0.1-1.6-0.2-2.6-0.2c-0.7,0-1.4,0.1-2.1,0.2
			c-0.7,0.1-1.4,0.3-2.1,0.6s-1.1,0.7-1.6,1.2S170.6,39,170.6,39.8z"/>
		<path fill="#FFFFFF" d="M192.7,40.8V10.8l4.5-0.8v30c0,0.7,0.1,1.3,0.2,1.8s0.3,0.9,0.6,1.1s0.7,0.5,1.1,0.7s1.1,0.3,1.8,0.4
			l-0.6,3.8c-2.8-0.1-4.7-0.7-5.8-1.8C193.3,44.9,192.7,43.1,192.7,40.8z"/>
	</g>
</g>
<g id="Layer_2">
	
		<ellipse transform="matrix(-0.7431 -0.6691 0.6691 -0.7431 26.0413 77.1886)" fill="none" stroke="#FFFFFF" stroke-width="5" cx="27.8" cy="33.6" rx="15.7" ry="12.6"/>
	<line fill="none" stroke="#FFFFFF" stroke-width="5" x1="22.1" y1="42.7" x2="33.6" y2="22.8"/>
</g>
</svg>
